<svg width="1440" height="475" viewBox="0 0 1440 475" fill="none" xmlns="http://www.w3.org/2000/svg">
<g clip-path="url(#clip0_630_1430)">
<path d="M0.0429688 429.519C0.0429688 428.148 0.0429688 426.783 0.0429688 425.412C1.19458 425.715 1.92645 426.303 2.7767 426.802C24.4744 439.526 46.172 452.244 67.8374 464.993C74.3381 468.821 82.0873 471.001 91.3002 471.153C105.453 471.386 119.197 466.187 124.718 458.65C130.692 450.5 127.947 442.249 117.098 435.874C101.32 426.6 85.5744 417.306 69.7101 408.083C62.7467 404.033 59.9483 399.225 61.326 393.59C63.1018 386.286 70.1837 381.257 81.8828 378.932C93.2483 376.664 103.72 377.909 112.514 383.14C128.389 392.585 144.447 401.916 160.418 411.298C166.586 414.925 174.055 416.915 182.73 417.136C197.13 417.509 211.046 412.341 216.708 404.665C222.692 396.553 219.915 388.239 209.098 381.883C165.025 356.012 120.995 330.122 76.8351 304.301C70.216 300.428 67.0302 295.968 67.7836 290.528C68.8061 283.136 75.4897 277.937 86.8552 275.189C98.3067 272.421 109.242 273.382 118.422 278.644C127.14 283.648 135.826 288.677 144.436 293.738C180.739 315.079 217.009 336.446 253.312 357.793C261.211 362.437 270.898 364.313 281.833 363.296C296.201 361.963 306.06 357.067 310.645 348.993C315.23 340.919 311.473 333.925 301.27 327.948C257.219 302.14 213.264 276.282 169.19 250.486C162.948 246.835 159.805 242.583 160.375 237.44C161.226 229.739 167.963 224.236 180.017 221.526C191.577 218.929 202.522 219.946 211.703 225.38C229.569 235.955 247.543 246.474 265.538 256.981C274.073 261.966 284.416 263.709 296.158 262.351C314.11 260.279 326.455 250.373 324.582 239.778C323.7 234.768 319.696 230.743 313.734 227.243C277.054 205.744 240.418 184.219 203.749 162.714C200.251 160.66 197.625 158.323 196.377 155.499C192.847 147.475 198.831 139.237 211.186 135.112C221.163 131.782 236.586 131.858 247.467 138.264C332.784 188.534 418.337 238.666 503.825 288.835C511.693 293.453 521.196 295.526 532.196 294.584C546.489 293.359 556.455 288.62 561.244 280.666C565.969 272.82 563.106 265.769 552.935 259.805C510.111 234.692 467.318 209.566 424.514 184.441C410.943 176.474 397.414 168.488 383.788 160.553C376.653 156.402 373.058 151.563 374.468 145.612C376.211 138.22 383.347 133.204 395.068 130.79C406.487 128.434 416.97 129.786 425.72 134.966C433.727 139.717 441.821 144.424 449.871 149.156C452.099 150.47 454.575 151.595 457.362 152.473C472.484 157.224 491.233 154.558 501.952 146.13C512.317 137.98 510.95 127.157 498.648 119.93C462.066 98.4496 425.472 76.9756 388.879 55.5015C386.457 54.08 384.23 52.5764 382.615 50.7948C375.792 43.2893 379.892 33.6674 392.215 28.291C404.033 23.1357 420.22 23.7864 430.542 29.8451C493.202 66.6145 555.852 103.39 618.502 140.166C619.772 140.911 621.031 141.663 622.377 142.358C627.866 145.22 634.355 146.806 641.631 147.09C656.462 147.678 670.54 142.686 676.481 134.973C682.669 126.949 679.602 117.971 668.958 111.774C624.701 86.0163 580.746 60.0756 536.641 34.2233C529.925 30.2874 526.793 25.6628 527.847 20.0969C529.29 12.5282 536.425 7.37923 548.307 4.86476C559.781 2.44507 570.339 3.82233 579.186 9.04711C597.203 19.6862 615.521 30.1547 633.322 40.9202C646.431 48.8553 666.655 49.1332 680.775 42.2785C696.672 34.5645 697.942 20.9118 683.412 12.3766C677.643 8.99025 671.864 5.60394 666.106 2.21131C665.298 1.73116 664.308 1.32051 664.071 0.587646H671.067C675.964 3.99291 681.647 6.94962 686.942 10.1274C696.327 15.7566 700.234 22.4723 697.877 30.1926C695.014 39.5998 685.608 46.0628 670.12 48.969C655.128 51.7804 641.642 49.8914 630.341 43.2451C612.292 32.625 594.167 22.049 576.151 11.41C569.704 7.60667 562.159 5.95142 553.183 7.1202C543.346 8.39639 536.651 11.9849 533.767 17.5887C530.926 23.0978 533.153 27.9561 540.332 32.1574C584.556 58.0097 628.651 83.944 672.778 109.847C685.823 117.504 688.567 128.219 679.688 137.702C666.235 152.056 633.548 153.926 616.489 143.179C608.6 138.214 600.184 133.551 591.993 128.75C537.265 96.6301 482.536 64.5106 427.819 32.3849C425.128 30.8054 422.233 29.4219 418.606 28.6448C407.531 26.263 394.895 28.8912 388.352 34.9499C381.862 40.9644 383.218 47.8697 391.882 52.9618C428.529 74.4737 465.176 95.9983 501.855 117.498C511.036 122.88 515.169 129.318 513.382 136.849C511.101 146.471 501.942 153.199 486.389 156.339C471.418 159.365 457.524 157.767 445.943 151.045C437.785 146.307 429.681 141.53 421.587 136.754C416.905 133.993 411.201 132.54 404.646 132.698C393.464 132.976 385.295 136.255 381.098 142.295C376.932 148.284 379.214 153.604 387.189 158.272C443.704 191.352 500.101 224.501 556.552 257.619C565.98 263.147 569.898 269.793 567.745 277.482C565.097 286.933 555.798 293.466 540.408 296.461C525.307 299.398 511.585 297.56 500.101 290.819C415.076 240.902 330.028 190.992 244.992 141.082C243.787 140.374 242.57 139.673 241.29 139.016C237.286 136.975 232.604 135.882 227.309 135.788C216.557 135.592 206.558 139.313 202.458 144.992C198.206 150.881 200.251 156.51 208.388 161.286C244.852 182.69 281.284 204.108 317.802 225.481C327.252 231.009 331.352 237.592 329.318 245.28C326.81 254.738 317.576 261.34 302.228 264.385C287.214 267.361 273.341 265.699 261.814 258.952C243.84 248.433 225.888 237.901 207.979 227.351C201.887 223.762 194.558 222.505 186.303 223.484C176.229 224.678 169.481 228.343 166.435 234.073C163.464 239.658 166.037 244.484 173.119 248.629C212.478 271.676 251.773 294.767 291.089 317.846C296.481 321.011 301.948 324.126 307.244 327.342C314.046 331.474 317.275 336.534 317.501 342.207C317.877 351.867 307.889 360.826 292.811 364.566C277.291 368.42 260.964 366.48 248.781 359.322C204.449 333.306 160.128 307.289 115.796 281.279C114.655 280.609 113.504 279.933 112.212 279.377C102.214 275.043 87.6516 276.174 79.1814 281.904C70.2268 287.963 70.3559 296.208 79.5365 301.616C91.0527 308.401 102.612 315.167 114.16 321.94C147.202 341.329 180.233 360.725 213.274 380.114C222.799 385.705 226.523 392.49 224.155 400.173C221.249 409.63 211.692 416.106 196.043 418.943C180.771 421.71 167.242 419.549 155.877 412.821C140.088 403.477 124.18 394.209 108.338 384.89C106.476 383.797 104.452 382.868 102.095 382.186C91.4293 379.103 78.1374 381.302 70.6573 387.392C63.5862 393.141 64.4902 400.767 72.9282 405.739C88.814 415.095 104.689 424.471 120.693 433.758C129.863 439.077 134.028 445.427 132.446 452.907C130.433 462.352 121.673 469.061 106.605 472.416C91.3002 475.821 76.9965 474.324 65.1252 467.444C44.2563 455.352 23.6134 443.121 2.87357 430.959C1.99102 430.441 1.01161 429.986 0.075257 429.5L0.0429688 429.519Z" fill="#1509CE" fill-opacity="0.35"/>
<path d="M0.0429688 421.305C0.0429688 419.935 0.0429688 418.57 0.0429688 417.199C1.01161 417.711 2.03407 418.191 2.94891 418.728C27.0574 432.867 51.166 447 75.2314 461.164C80.1285 464.045 85.9834 465.612 92.8608 465.391C104.043 465.031 112.094 461.689 116.151 455.598C120.134 449.622 117.798 444.327 109.887 439.753C94.1093 430.63 78.5571 421.369 62.8543 412.202C53.5445 406.762 49.7022 400.223 51.6718 392.648C54.1365 383.165 63.3494 376.576 78.7078 373.537C93.9371 370.517 107.896 372.273 119.542 379.134C135.438 388.491 151.378 397.822 167.274 407.166C169.448 408.449 171.827 409.542 174.679 410.262C185.743 413.061 198.465 410.711 205.643 404.551C212.413 398.738 211.165 391.29 202.576 386.242C158.255 360.225 113.934 334.203 69.5918 308.199C60.8632 303.081 56.7841 296.953 58.0972 289.757C59.8838 280.022 68.6769 273.123 84.2075 269.698C99.7812 266.268 114.063 268.012 126.064 274.974C137.806 281.778 149.44 288.645 161.107 295.494C194.074 314.851 227.051 334.209 259.995 353.579C262.772 355.215 265.883 356.479 269.649 357.18C280.52 359.208 292.757 356.403 298.967 350.433C304.101 345.505 304.445 337.918 295.34 332.604C250.955 306.695 206.784 280.66 162.474 254.713C152.443 248.844 148.644 241.831 151.367 233.801C154.456 224.697 163.895 218.468 178.963 215.669C193.858 212.902 207.333 214.734 218.57 221.304C236.36 231.703 254.097 242.134 271.834 252.571C274.859 254.353 278.184 255.812 282.371 256.507C293.586 258.364 305.403 255.547 311.506 249.475C316.575 244.434 316.51 236.972 307.394 231.666C270.586 210.242 234.046 188.661 197.356 167.174C187.896 161.633 184.064 154.993 186.195 147.317C188.8 137.916 198.067 131.422 213.339 128.434C228.504 125.464 242.377 127.265 253.936 134.044C277.786 148.038 301.626 162.031 325.465 176.025C387.168 212.238 448.892 248.445 510.541 284.69C516.88 288.418 524.328 289.789 532.874 288.727C542.915 287.477 549.599 283.749 552.494 277.987C555.271 272.453 552.688 267.696 545.692 263.595C489.209 230.497 432.802 197.348 376.33 164.243C366.902 158.715 362.812 152.138 364.9 144.436C367.45 135.048 376.599 128.497 391.828 125.42C406.982 122.356 420.866 124.131 432.5 130.847C440.745 135.61 448.871 140.444 457.061 145.245C461.108 147.614 465.983 148.941 471.698 149.055C482.892 149.276 492.75 145.637 497.001 139.787C501.253 133.93 499.1 128.269 490.759 123.367C454.166 101.893 417.594 80.406 380.979 58.9446C372.1 53.7388 368.376 47.421 369.947 40.2504C372.1 30.4452 381.431 23.5652 397.371 20.4379C412.88 17.3928 426.785 19.4713 438.56 26.3892C500.973 63.0764 563.461 99.7257 625.939 136.381C627.521 137.31 629.114 138.258 630.933 139.016C642.234 143.722 658.356 141.435 666.224 134.069C672.563 128.13 671.013 121.149 662.113 115.924C617.856 89.9395 573.589 63.9609 529.333 37.9823C515.933 30.1167 513.974 18.1698 524.479 8.88276C528.439 5.38272 533.767 2.79245 539.794 0.625458H576.926C580.563 2.23648 584.201 3.82856 587.441 5.74284C605.264 16.2619 623.205 26.7114 641.018 37.2431C646.765 40.6421 653.545 42.0383 661.521 41.337C671.186 40.4841 678.041 37.2495 681.733 32.0499C685.5 26.743 684.639 21.5372 677.686 17.2096C669.69 12.2375 661.327 7.4739 653.136 2.60923C652.071 1.97746 650.812 1.44045 650.112 0.619141C652.448 0.619141 654.772 0.619141 657.108 0.619141C657.851 1.11824 658.539 1.64262 659.336 2.11013C666.428 6.28616 673.543 10.4496 680.635 14.6193C685.952 17.7529 688.632 21.5562 688.783 25.966C689.03 33.3135 681.561 40.1051 670.099 42.9923C658.249 45.9743 646.238 44.5401 636.788 38.9995C618.653 28.3541 600.539 17.696 582.371 7.06956C571.878 0.935028 559.522 -0.480148 545.757 2.47656C530.829 5.67966 521.282 14.8973 523.058 24.0896C523.984 28.8911 527.611 32.8523 533.423 36.2512C577.851 62.2804 622.226 88.3474 666.611 114.402C675.179 119.431 677.536 127.056 672.466 133.519C663.049 145.523 637.563 147.646 622.775 138.896C560.05 101.792 496.937 64.9212 433.975 27.956C425.429 22.9398 415.14 21.076 403.452 22.5101C389.901 24.1654 380.613 29.0364 376.394 36.763C372.132 44.5717 375.372 51.4518 385.338 57.2894C421.781 78.6244 458.116 100.029 494.591 121.351C501.167 125.199 504.503 129.609 503.89 135.08C503.082 142.307 496.775 147.463 485.905 150.362C475.11 153.243 464.1 152.896 454.962 148.044C445.663 143.11 437.01 137.746 428.131 132.54C422.125 129.021 414.828 127.227 406.455 126.999C391.957 126.614 378.267 131.744 372.412 139.629C366.471 147.646 369.269 155.853 380.14 162.227C436.579 195.351 493.008 228.481 549.47 261.599C553.021 263.684 555.841 265.996 557.37 268.827C561.46 276.465 555.594 285.164 543.593 289.467C533.358 293.137 517.106 292.752 507.205 286.914C422.599 237.048 337.735 187.328 252.956 137.569C252.192 137.12 251.428 136.678 250.675 136.23C242.635 131.466 232.873 129.255 221.594 130.266C207.15 131.561 197.119 136.451 192.502 144.594C188.003 152.517 191.415 159.492 201.5 165.399C237.996 186.784 274.396 208.214 310.935 229.574C317.77 233.567 320.923 238.198 319.825 243.821C318.394 251.181 311.516 256.273 299.979 258.807C288.624 261.296 277.937 260.266 269.004 255.01C251.148 244.497 233.25 234.009 215.362 223.522C207.452 218.885 197.97 216.876 186.776 217.596C169.997 218.683 155.844 227.799 155.608 237.693C155.468 243.612 159.084 248.528 166.187 252.691C210.541 278.689 254.851 304.718 299.182 330.728C301.163 331.89 302.96 333.116 304.295 334.569C310.429 341.222 308.417 349.378 299.193 355.165C287.688 362.386 267.723 362.437 256.325 355.683C218.72 333.394 180.728 311.326 142.897 289.163C135.976 285.114 129.207 280.969 122.297 276.92C108.456 268.82 86.3386 269.111 72.8852 277.444C59.7008 285.606 59.69 298.311 73.5847 306.392C117.992 332.213 162.022 358.254 206.289 384.151C213.845 388.573 216.352 393.804 214.383 399.743C212.08 406.686 204.761 411.374 193.385 413.484C182.052 415.582 171.881 414.128 163.303 409.03C147.353 399.56 131.273 390.165 115.183 380.771C107.251 376.14 97.478 374.32 86.5861 375.394C72.2824 376.803 62.4453 381.712 57.9572 389.824C53.5445 397.791 57.1608 404.728 67.2132 410.603C82.7869 419.701 98.2099 428.887 113.87 437.927C120.306 441.642 123.459 445.964 122.878 451.239C122.028 458.909 115.269 464.272 103.387 467.046C91.7415 469.763 80.8603 468.619 71.712 463.236C48.7766 449.754 25.809 436.285 2.84128 422.815C1.95874 422.297 1.00085 421.817 0.075257 421.318L0.0429688 421.305Z" fill="#1509CE" fill-opacity="0.35"/>
<path d="M685.048 0.619081C686.663 2.16693 689.063 3.30412 691.259 4.51713C698.879 8.72475 704.475 13.6084 706.994 19.6545C714.409 37.4263 690.968 55.4571 659.788 55.9057C645.603 56.1142 633.484 53.3344 623.421 47.402C605.329 36.7313 587.129 26.1238 569.048 15.4468C564.796 12.9387 559.921 11.9342 554.13 12.9513C548.168 14.0001 544.293 16.3692 542.84 19.9324C541.624 22.9144 542.905 25.5236 546.693 27.7285C556.692 33.5472 566.615 39.4101 576.571 45.254C611.001 65.4645 645.517 85.6307 679.839 105.911C694.261 114.433 698.437 124.674 691.581 135.983C684.499 147.671 669.765 154.279 648.789 155.676C633.635 156.686 620.558 153.723 609.742 147.38C546.78 110.422 483.742 73.4943 420.899 36.4597C412.633 31.5887 400.342 33.6293 395.918 38.8857C393.012 42.3352 393.927 46.0121 398.577 48.7414C435.288 70.2975 472.022 91.8411 508.723 113.397C527.03 124.15 528.709 140.197 512.834 152.188C494.343 166.15 459.935 167.439 438.636 154.968C430.886 150.432 423.17 145.883 415.42 141.347C410.373 138.39 404.012 137.727 397.974 139.508C391.85 141.315 388.201 145.302 389.17 149.175C389.601 150.899 391 152.334 393.109 153.565C400.869 158.089 408.597 162.644 416.324 167.18C465.284 195.913 514.265 224.634 563.182 253.392C577.507 261.814 581.748 271.916 575.451 283.143C569.091 294.483 555.153 301.218 535.123 303.138C519.173 304.667 505.117 301.925 493.59 295.165C408.155 245.04 322.742 194.896 237.319 144.765C231.722 141.48 226.254 140.721 219.829 142.421C209.551 145.138 207.495 152.782 214.911 157.084C251.827 178.514 288.517 200.083 325.11 221.709C339.737 230.351 343.493 240.757 336.347 252.11C329.308 263.298 314.993 269.724 294.867 271.271C279.1 272.484 265.592 269.414 254.367 262.793C236.834 252.464 219.248 242.166 201.672 231.861C196.27 228.696 190.264 228.102 183.817 230.08C177.542 232.007 174.249 235.924 175.433 239.986C175.928 241.673 177.445 243.006 179.447 244.181C199.175 255.755 218.904 267.323 238.632 278.897C263.623 293.56 288.786 308.123 313.519 322.932C326.897 330.943 330.567 340.735 324.873 351.399C318.965 362.474 305.78 369.31 286.472 371.667C269.639 373.72 254.786 370.997 242.592 363.864C204.148 341.392 165.811 318.857 127.431 296.347C121.092 292.625 114.785 288.879 108.446 285.158C102.418 281.626 93.2163 281.753 87.0708 285.411C80.9253 289.081 80.8284 294.262 86.8878 297.819C131.08 323.766 175.304 349.694 219.474 375.653C233.864 384.113 238.298 394.196 231.873 405.511C225.286 417.11 210.907 423.851 190.436 425.563C174.927 426.859 161.151 424.06 149.914 417.489C133.899 408.133 117.949 398.738 101.956 389.356C95.7348 385.705 86.9094 385.717 80.6239 389.375C74.3385 393.033 74.2309 398.397 80.4194 402.03C96.1976 411.304 111.997 420.566 127.786 429.834C149.527 442.596 147.062 463.015 122.459 473.882C121.641 474.242 120.844 474.627 120.037 475H109.274C115.753 473.256 121.512 470.931 126.204 467.76C134.47 462.162 138.269 455.68 137.387 448.263C136.59 441.579 131.553 436.127 123.546 431.464C107.757 422.266 92.0755 413.016 76.3511 403.78C70.733 400.482 69.1939 395.516 72.4012 391.239C78.5359 383.083 95.9823 381.207 106.218 387.442C121.77 396.919 137.817 406.111 153.703 415.392C164.971 421.981 178.608 424.256 193.945 422.177C211.165 419.846 222.703 413.478 227.643 403.54C232.486 393.792 228.439 385.187 216.073 377.94C178.619 356.005 141.229 334.032 103.818 312.071C97.0371 308.091 90.2458 304.105 83.4653 300.125C80.2688 298.248 77.9978 296.088 77.5458 293.39C76.6417 287.982 81.2697 283.048 89.3202 280.786C97.5322 278.474 105.992 279.428 112.912 283.452C119.337 287.199 125.763 290.945 132.167 294.704C170.138 317.006 208.141 339.288 246.058 361.622C254.765 366.752 265.097 369.291 277.421 369.247C295.362 369.184 311.894 362.645 318.814 352.777C325.821 342.788 322.204 332.238 309.128 324.562C288.14 312.242 267.153 299.922 246.166 287.603C222.767 273.868 199.348 260.146 175.982 246.392C167.92 241.648 168.222 234.369 176.391 229.555C184.172 224.969 197.593 225.044 204.901 229.48C222.294 240.037 240.225 250.284 257.865 260.696C268.186 266.786 280.692 269.496 295.05 268.283C313.164 266.754 325.928 260.74 331.955 250.562C338.015 240.333 334.162 231.192 320.977 223.484C304.521 213.862 288.119 204.209 271.695 194.568C251.525 182.735 231.378 170.889 211.187 159.068C207.226 156.75 204.934 154.033 205.192 150.748C205.612 145.327 210.207 141.397 218.764 139.452C227.072 137.563 234.305 138.769 240.773 142.566C325.864 192.597 411.04 242.57 496.216 292.543C508.895 299.986 524.027 302.45 541.118 299.291C573.848 293.251 583.47 269.439 560.298 255.913C503.643 222.846 447.267 189.608 390.72 156.478C386.189 153.824 383.638 150.868 384.133 147.058C384.811 141.84 389.482 138.258 397.543 136.381C405.293 134.574 412.493 135.364 418.552 138.946C426.517 143.647 434.524 148.334 442.521 153.016C451.895 158.5 463.239 161.096 476.391 160.42C495.194 159.447 508.604 153.673 515.406 143.432C522.305 133.045 518.7 123.562 505.128 115.589C468.621 94.1407 432.092 72.7046 395.552 51.2811C393.238 49.9228 391.28 48.4508 390.203 46.6123C387.157 41.4128 391.032 35.4615 399.395 32.3784C406.078 29.9145 416.83 29.8703 424.052 34.1221C486.454 70.8914 549.029 107.56 611.56 144.253C612.637 144.885 613.702 145.529 614.822 146.129C624.594 151.398 636.218 153.692 649.241 152.681C667.753 151.247 680.84 145.213 686.921 134.865C692.981 124.548 688.88 115.349 675.523 107.534C631.439 81.7516 587.484 55.8867 543.465 30.0724C541.14 28.7078 539.203 27.2231 538.245 25.3657C535.468 19.9956 539.515 14.1707 547.974 11.2139C554.098 9.07223 565.205 8.8132 572.438 13.1788C590.573 24.1148 609.117 34.8171 627.532 45.6015C635.949 50.5356 646.227 53.0059 658.045 52.9679C671.046 52.9237 681.949 49.9481 691.054 44.4264C707.112 34.6781 707.51 18.909 691.635 9.07223C687.007 6.21029 682.239 3.42416 677.536 0.606445C680.044 0.606445 682.562 0.606445 685.07 0.606445L685.048 0.619081Z" fill="#1509CE" fill-opacity="0.35"/>
<path d="M0.0429688 408.992C0.968564 409.491 1.91568 409.972 2.79823 410.49C29.1885 425.968 55.5571 441.459 81.9474 456.938C87.0597 459.939 94.0124 460.438 100.147 458.296C106.357 456.129 109.457 451.852 107.638 448.023C106.917 446.501 105.367 445.313 103.494 444.214C87.7485 434.99 72.2501 425.627 56.2567 416.555C30.5984 402.005 39.5099 376.62 72.7452 368.647C91.6446 364.111 111.879 366.505 126.344 374.984C142.208 384.284 158.051 393.596 173.904 402.896C179.103 405.947 185.84 406.465 192.072 404.323C198.368 402.156 201.478 397.848 199.584 393.918C198.874 392.452 197.345 391.322 195.537 390.26C151.518 364.439 107.52 338.6 63.4893 312.779C49.0242 304.295 44.2348 294.256 50.6063 282.839C57.0962 271.221 71.3784 264.461 91.8383 262.635C106.637 261.315 119.994 263.798 131.036 269.819C138.516 273.9 145.609 278.234 152.841 282.479C190.694 304.705 228.536 326.937 266.378 349.163C271.361 352.088 276.807 352.815 282.758 351.349C289.022 349.808 292.94 346.314 292.822 342.422C292.757 340.186 291.186 338.379 288.527 336.825C280.638 332.219 272.792 327.601 264.925 322.982C228.46 301.578 191.964 280.199 155.554 258.769C141.315 250.385 137.053 240.353 143.37 229.17C149.763 217.842 163.658 211.089 183.666 209.149C199.735 207.589 213.834 210.394 225.447 217.179C243.367 227.654 261.222 238.167 279.11 248.66C284.179 251.636 290.594 252.148 296.815 250.12C302.96 248.111 306.307 243.909 304.854 240.106C304.155 238.274 302.304 236.903 300.108 235.614C263.698 214.254 227.309 192.887 190.899 171.527C176.789 163.251 172.333 153.395 178.209 142.276C184.14 131.068 197.518 124.22 217.095 121.926C233.766 119.974 248.479 122.722 260.48 129.754C346.086 179.93 431.672 230.118 517.052 280.426C526.028 285.714 540.246 282.858 543.141 276.263C544.551 273.06 543.174 270.305 539.084 267.911C511.262 251.636 483.505 235.317 455.737 219.018C427.076 202.193 398.662 185.218 369.668 168.589C345.01 154.444 352.038 130.803 381.786 121.642C400.826 115.779 423.998 117.731 439.206 126.608C447.03 131.176 454.811 135.762 462.614 140.336C469.373 144.304 477.779 144.298 484.474 140.469C489.64 137.519 491.48 131.852 484.118 127.562C447.364 106.183 410.889 84.639 374.252 63.1903C364.803 57.6559 359.777 50.9591 359.777 43.2388C359.777 30.5528 372.509 19.4651 393.12 15.2069C412.32 11.2394 429.465 13.5517 444.382 21.6384C445.243 22.0996 446.04 22.5987 446.869 23.0852C509.271 59.7092 571.673 96.3332 634.076 132.957C638.887 135.781 645.527 136.419 651.285 134.625C657.614 132.648 661.133 128.604 659.895 124.782C659.282 122.887 657.528 121.415 655.257 120.082C640.598 111.489 625.95 102.891 611.302 94.2925C581.747 76.9503 552.203 59.6018 522.649 42.2595C503.513 31.0329 503.029 13.4443 521.508 1.80068C522.079 1.44057 522.574 1.02991 523.101 0.644531C525.792 0.644531 528.482 0.644531 531.173 0.644531C530.452 1.01096 529.742 1.38371 529.021 1.75014C519.323 6.69062 513.834 12.9452 513.092 20.438C512.328 28.0825 516.794 34.6719 526.082 40.1241C570.489 66.1659 614.864 92.2266 659.271 118.268C661.8 119.753 663.759 121.402 664.62 123.462C666.816 128.724 662.618 134.315 654.396 137.064C646.227 139.799 636.982 138.984 630.061 134.922C567.024 97.9252 503.986 60.9348 440.971 23.9318C432.339 18.8649 421.996 16.3568 409.802 16.3947C391.839 16.4452 375.21 22.9967 368.311 32.8019C361.316 42.7586 365.007 53.5431 378.052 61.1938C414.58 82.63 451.098 104.072 487.627 125.509C489.145 126.399 490.705 127.271 491.781 128.389C496.625 133.399 494.149 140.02 486.045 143.685C477.736 147.437 467.049 147.185 459.805 142.99C451.507 138.182 443.328 133.305 435.051 128.484C425.526 122.937 413.838 120.536 400.707 121.421C382.185 122.666 368.968 128.566 362.51 138.852C355.999 149.219 359.916 158.544 373.262 166.384C429.799 199.597 486.368 232.797 542.958 265.977C548.566 269.269 550.019 273.129 547.845 277.425C543.195 286.624 524.059 288.835 513.415 282.561C428.755 232.651 343.826 182.905 258.984 133.109C258.036 132.553 257.079 131.997 256.11 131.447C245.347 125.344 232.4 123.304 217.945 124.833C193.783 127.385 177.671 140.867 181.438 155.101C182.934 160.768 187.594 165.456 194.461 169.48C231.205 191.017 267.884 212.586 304.639 234.104C309.816 237.137 311.151 240.744 309.644 244.699C307.879 249.324 302.777 252.413 295.028 253.753C287.408 255.073 280.767 253.948 275.106 250.606C257.455 240.195 239.535 229.947 222.1 219.416C200.208 206.199 162.259 210.659 149.494 227.875C141.917 238.091 145.695 248.768 159.439 256.918C169.782 263.052 180.222 269.13 190.629 275.233C224.489 295.109 258.349 314.99 292.23 334.847C294.856 336.382 296.772 338.101 297.482 340.236C299.322 345.745 294.92 351.033 286.278 353.731C278.432 356.182 269.434 355.253 262.632 351.28C254.56 346.567 246.477 341.854 238.427 337.122C201.973 315.717 165.509 294.319 129.099 272.889C118.551 266.685 105.808 264.221 91.2894 265.693C73.3372 267.513 60.9708 273.691 55.3527 283.876C49.8744 293.794 53.6306 302.665 66.3199 310.107C110.07 335.789 153.832 361.47 197.582 387.152C198.529 387.708 199.509 388.257 200.391 388.851C205.762 392.49 206.709 397.728 202.791 401.967C198.605 406.497 190.167 409.074 182.03 408.531C176.67 408.171 172.72 406.528 169.104 404.399C153.638 395.314 138.107 386.267 122.706 377.138C111.825 370.688 98.748 368.192 83.7017 369.885C66.0939 371.863 54.0826 378.061 48.6367 388.043C43.2984 397.822 46.8931 406.667 59.3994 414.04C75.2745 423.403 91.2464 432.715 107.132 442.078C115.441 446.975 115.14 453.975 106.885 459.01C99.7812 463.344 86.1771 463.786 78.2235 459.01C53.3293 444.075 27.983 429.399 2.79823 414.628C1.91568 414.11 0.979327 413.617 0.0644942 413.111C0.0644942 411.74 0.0644942 410.376 0.0644942 409.005L0.0429688 408.992Z" fill="#1509CE" fill-opacity="0.35"/>
<path d="M784.593 475C784.28 472.511 782.322 470.565 779.33 468.809C722.857 435.704 666.385 402.599 610.021 369.424C595.879 361.104 591.703 351.058 597.977 339.939C604.263 328.82 617.813 322.022 637.477 319.988C653.901 318.288 668.355 321.043 680.259 328.037C688.115 332.655 695.972 337.273 703.85 341.879C709.156 344.981 716.066 345.423 722.255 343.104C728.616 340.716 731.425 336.325 729.132 332.421C728.347 331.082 726.861 330.058 725.193 329.085C688.589 307.611 652.028 286.125 615.402 264.67C605.188 258.687 600.27 251.516 600.561 243.069C601.056 228.759 621.559 215.96 645.829 214.74C661.564 213.951 674.877 216.85 686.027 223.402C748.785 260.266 811.575 297.105 874.354 333.956C879.531 336.995 885.041 337.684 891.208 336.073C897.332 334.474 901.131 330.886 900.852 326.994C900.69 324.815 899 323.09 896.428 321.586C882.34 313.329 868.262 305.065 854.184 296.802C823.93 279.049 793.622 261.334 763.465 243.524C749.183 235.09 745.029 224.981 751.551 213.755C758.116 202.452 772.097 195.787 792.137 193.949C808.227 192.47 822.23 195.383 833.8 202.187C851.978 212.877 870.189 223.56 888.399 234.231C893.458 237.2 900.066 237.781 906.104 235.842C912.378 233.826 915.726 229.657 914.273 225.727C913.616 223.945 911.83 222.606 909.699 221.361C884.255 206.445 858.834 191.516 833.402 176.587C821.864 169.815 810.315 163.042 798.778 156.263C780.836 145.732 778.77 130.379 793.665 118.262C810.412 104.635 843.583 102.158 865.539 112.911C866.701 113.486 867.788 114.118 868.865 114.749C932.16 151.891 995.445 189.04 1058.73 226.182C1063.99 229.271 1070.53 229.758 1076.88 227.565C1083.13 225.405 1086.23 221.014 1084.29 217.122C1083.45 215.435 1081.54 214.197 1079.49 213.003C1063.83 203.811 1048.16 194.618 1032.5 185.42C1011.92 173.34 1013.62 153.446 1036.16 142.592C1056.77 132.666 1084.83 133.481 1103.7 144.556C1119.36 153.749 1135.02 162.947 1150.69 172.133C1157 175.842 1165.58 175.829 1171.95 172.121C1178.47 168.33 1178.62 163.232 1172.28 159.504C1127.89 133.444 1083.52 107.383 1039.1 81.3474C1029.37 75.6424 1024.31 68.7308 1024.76 60.7515C1025.42 49.2848 1034.38 40.4273 1051.8 35.0635C1069.12 29.725 1086.34 30.3568 1102.8 36.6619C1105.74 37.7865 1108.26 39.2206 1110.74 40.68C1154.81 66.5512 1198.88 92.4161 1242.96 118.287C1248.39 121.478 1254.02 122.166 1260.23 120.41C1266.8 118.546 1270.29 114.8 1269.38 110.586C1269.1 109.303 1268.24 108.147 1266.83 107.162C1265.78 106.441 1264.69 105.747 1263.55 105.077C1219.73 79.351 1175.95 53.6125 1132.06 27.9308C1122.52 22.3522 1117.84 15.6491 1117.34 7.86563C1117.19 5.4333 1118.02 3.01992 1118.75 0.625488H1124.14C1119.98 10.3359 1123.73 18.8143 1135.81 25.9154C1179.98 51.8751 1224.17 77.8221 1268.43 103.731C1273.41 106.65 1275.51 109.979 1274.28 114.023C1272.81 118.805 1268 122.034 1260.31 123.594C1252.75 125.123 1245.82 124.302 1240.01 120.89C1231.2 115.716 1222.35 110.567 1213.53 105.386C1177.52 84.2409 1141.52 63.0891 1105.52 41.9436C1095.24 35.9101 1082.61 33.6105 1068.57 34.9056C1050.48 36.5735 1037.89 42.7396 1032.19 52.9807C1026.57 63.0638 1030.47 72.0856 1043.36 79.6479C1087.5 105.551 1131.6 131.479 1175.81 157.344C1181.51 160.686 1183.17 164.558 1181.06 168.899C1176.54 178.198 1157.11 180.599 1146.74 174.25C1130.97 164.603 1114.6 155.297 1098.51 145.833C1094.98 143.76 1090.99 142.086 1086.42 140.911C1067.49 136.015 1045.57 139.325 1032.74 148.979C1026.19 153.9 1022.94 159.523 1023.13 165.708C1023.33 172.879 1028.25 178.906 1036.99 183.96C1052.95 193.203 1068.71 202.566 1084.59 211.847C1088.48 214.115 1090.22 216.85 1089.89 219.984C1089.33 225.335 1084.68 229.183 1076.19 231.053C1067.84 232.898 1060.6 231.628 1054.18 227.843C991.28 190.84 928.264 153.907 865.324 116.929C856.854 111.951 846.823 109.322 834.811 109.196C809.993 108.943 788.973 120.96 788.887 135.509C788.844 142.908 793.579 149.099 802.459 154.298C839.644 176.095 876.786 197.916 913.961 219.719C915.962 220.894 917.609 222.164 918.567 223.737C921.742 228.981 918.126 234.894 909.785 238.059C901.734 241.117 891.811 240.498 884.901 236.448C866.486 225.664 848.103 214.867 829.731 204.07C826.793 202.345 823.64 200.81 819.948 199.666C803.008 194.422 784.248 195.768 769.116 203.305C749.85 212.902 748.591 230.516 766.436 240.984C810.445 266.818 854.453 292.645 898.462 318.478C899.539 319.11 900.604 319.754 901.573 320.443C906.663 324.063 907.255 328.125 904.231 332.301C898.462 340.242 881.167 342.397 870.436 336.066C807.614 299.019 744.566 262.105 681.604 225.139C670.97 218.897 658.141 216.478 643.504 218C625.864 219.839 613.648 225.942 608.041 235.886C602.423 245.862 606.05 254.877 618.933 262.427C655.278 283.743 691.613 305.078 727.948 326.407C728.96 327 729.982 327.601 730.876 328.258C737.269 332.908 736.139 340.021 728.379 344.115C719.812 348.639 708.382 348.689 700.772 344.235C693.088 339.737 685.382 335.251 677.762 330.722C667.107 324.385 654.385 321.649 639.22 322.774C618.244 324.334 600.83 335.744 600.464 348.127C600.238 355.771 604.704 362.133 613.949 367.541C670.454 400.627 726.85 433.777 783.312 466.894C787.165 469.156 789.576 471.734 789.436 475.006H784.593V475Z" fill="#1509CE" fill-opacity="0.35"/>
<path d="M1156.96 0.619021C1153.93 2.83655 1151.55 5.18675 1151.99 8.21296C1152.25 9.95666 1153.14 11.4982 1155.22 12.7744C1156.34 13.4567 1157.46 14.139 1158.6 14.8087C1202.1 40.345 1245.63 65.8561 1289.09 91.4177C1303.84 100.098 1307.84 110.466 1300.88 121.901C1293.87 133.405 1279.15 139.906 1258.61 141.334C1243.66 142.377 1230.42 139.584 1219.63 133.273C1181.39 110.902 1143.19 88.5179 1104.99 66.1341C1098.39 62.2676 1091.9 58.3317 1085.31 54.4589C1080.07 51.3758 1073.23 50.9336 1066.91 53.2206C1060.72 55.4571 1057.8 59.8606 1059.89 63.7397C1060.65 65.1485 1062.21 66.1973 1063.94 67.2144C1107.83 92.9656 1151.48 118.856 1195.7 144.417C1215.82 156.055 1216.6 174.338 1196.88 186.19C1178.21 197.417 1147.63 198.409 1128.44 187.631C1111.66 178.211 1095.5 168.412 1079.05 158.784C1073.99 155.821 1068.3 155.126 1062.13 156.699C1056.22 158.209 1052.34 161.854 1052.58 165.664C1052.72 167.825 1054.29 169.575 1056.89 171.097C1072.71 180.346 1088.48 189.627 1104.27 198.895C1123.74 210.324 1124.48 227.414 1106.03 239.462C1088.6 250.846 1059.09 252.337 1038.66 242.848C1037.18 242.166 1035.85 241.376 1034.51 240.599C971.348 203.532 908.127 166.498 845.112 129.343C836.684 124.371 824.318 126.361 819.841 131.851C816.999 135.332 818.076 138.927 822.983 141.808C845.359 154.949 867.746 168.09 890.132 181.225C904.909 189.899 919.773 198.516 934.432 207.254C948.219 215.473 952.599 225.266 946.68 236.29C940.631 247.567 927.188 254.466 907.492 256.64C890.918 258.465 876.248 255.73 864.183 248.641C846.048 237.996 827.913 227.35 809.778 216.705C804.332 213.508 798.401 212.908 791.944 214.879C785.658 216.8 782.322 220.723 783.484 224.76C784.022 226.624 785.852 227.995 788.058 229.29C832.272 255.224 876.453 281.178 920.677 307.099C928.297 311.566 933.108 316.848 934.754 323.083C938.855 338.619 920.978 353.56 894.609 356.504C877.626 358.399 862.752 355.778 850.493 348.594C787.359 311.585 724.289 274.538 661.187 237.509C656.183 234.572 649.09 233.997 643.246 236.025C636.767 238.28 633.624 242.62 635.593 246.544C636.358 248.06 637.972 249.216 639.845 250.315C676.578 271.859 713.268 293.421 750.012 314.952C759.376 320.436 764.38 327.095 764.423 334.765C764.509 349.403 747.289 362.133 721.136 364.408C704.906 365.817 690.86 362.936 679.247 356.081C671.53 351.532 663.792 346.99 656.032 342.46C650.909 339.465 644.042 338.903 638.09 340.931C631.751 343.092 628.544 347.35 630.287 351.279C630.965 352.808 632.494 354.015 634.377 355.108C643.967 360.718 653.535 366.347 663.114 371.964C710.039 399.503 756.922 427.073 803.923 454.568C813.631 460.248 818.571 467.008 819.033 474.975H813.652C813.684 474.69 813.76 474.4 813.738 474.115C813.394 467.109 808.411 461.366 800.07 456.476C743.554 423.327 687.061 390.153 630.535 357.003C627.92 355.468 626.036 353.756 625.218 351.633C623.184 346.339 627.468 340.956 635.959 338.183C643.687 335.656 653.137 336.496 659.659 340.305C667.408 344.835 675.211 349.34 682.853 353.939C691.829 359.335 702.635 361.862 715.475 361.697C732.889 361.476 749.345 354.824 755.985 345.151C762.809 335.22 759.225 324.688 746.439 317.182C710.233 295.93 674.016 274.677 637.821 253.424C636.745 252.792 635.744 252.116 634.679 251.472C625.444 245.88 629.889 234.407 646.345 232.146C654.17 231.072 660.423 232.689 665.987 235.968C728.648 272.813 791.406 309.595 854.077 346.434C864.807 352.739 877.658 355.177 892.382 353.655C910.022 351.829 922.173 345.739 927.845 335.782C933.517 325.825 929.89 316.873 917.136 309.367C889.002 292.828 860.836 276.313 832.681 259.786C816.45 250.259 800.188 240.744 783.99 231.192C776.015 226.485 776.273 219.27 784.227 214.469C791.847 209.869 805.483 209.749 812.931 214.279C830.679 225.07 848.943 235.57 867.057 246.158C882.178 254.991 903.241 256.728 921.097 250.663C947.863 241.565 951.458 220.515 930.514 209.155C925.649 206.514 921.107 203.665 916.415 200.911C884.137 181.964 851.86 163.017 819.572 144.082C816.58 142.332 814.309 140.38 813.555 137.885C811.973 132.628 816.386 127.359 824.63 124.801C830.991 122.83 840.989 122.76 848.297 127.069C911.13 164.103 974.157 201.031 1037.13 237.996C1039.29 239.266 1041.53 240.472 1044.03 241.508C1064.42 249.981 1093.48 246.367 1107.18 233.738C1118.22 223.566 1116.21 209.876 1101.15 201.277C1085.08 192.104 1069.41 182.69 1053.53 173.397C1050.86 171.836 1048.85 170.086 1047.99 167.907C1045.93 162.682 1050.23 157.097 1058.32 154.469C1066.69 151.752 1075.52 152.51 1082.42 156.554C1098.34 165.891 1114.24 175.242 1130.17 184.573C1138.72 189.577 1149.03 192.104 1161.13 192.072C1179.43 192.028 1195.96 185.483 1202.95 175.482C1209.88 165.563 1206.08 154.943 1192.82 147.159C1148.56 121.181 1104.29 95.202 1060.04 69.2171C1052.09 64.5483 1052.21 57.2829 1060.22 52.5193C1068.28 47.7305 1080.61 47.5725 1088.64 52.1908C1096.57 56.7585 1104.52 61.3326 1112.37 65.9509C1149.18 87.5892 1185.96 109.259 1222.77 130.897C1240.29 141.195 1268.51 141.075 1285.8 130.651C1303.8 119.803 1302.66 103.396 1285.6 93.4963C1241.41 67.8462 1197.72 41.9055 1153.59 16.2112C1145.3 11.3781 1145.41 5.07935 1150.5 0.59375H1156.96V0.619021Z" fill="#1509CE" fill-opacity="0.35"/>
<path d="M1139.2 0.619141C1141 0.619141 1142.79 0.619141 1144.58 0.619141C1144.51 0.84658 1144.49 1.08665 1144.34 1.29514C1139.72 7.97932 1142.27 13.5073 1151.02 18.6121C1194.8 44.1295 1238.17 69.8869 1282.07 95.3348C1298.74 104.995 1297.46 120.435 1281.37 129.318C1265.65 137.986 1241.51 137.929 1226.28 129.021C1217.58 123.935 1208.77 118.906 1200.1 113.802C1164.3 92.7572 1128.53 71.6938 1092.76 50.6368C1089.61 48.7793 1086.14 47.2378 1081.76 46.5429C1070.41 44.7486 1058.63 47.718 1052.6 53.8904C1046.86 59.7406 1048.55 66.349 1057.06 71.3463C1101.32 97.3249 1145.59 123.304 1189.84 149.282C1198.79 154.532 1202.79 160.85 1201.14 168.223C1198.95 178.066 1189.66 184.908 1173.75 188.029C1158.52 191.017 1144.61 189.179 1132.98 182.292C1117.27 172.98 1101.43 163.743 1085.63 154.482C1075.57 148.593 1060.63 148.631 1050.51 154.557C1040.2 160.591 1040.01 169.354 1050.08 175.273C1065.85 184.541 1081.6 193.841 1097.46 203.065C1107.02 208.618 1111.09 215.284 1108.97 223.017C1106.41 232.379 1097.27 238.963 1081.98 241.982C1066.95 244.952 1053.09 243.347 1041.56 236.593C1001.85 213.306 962.167 190 922.463 166.7C898.936 152.89 875.408 139.085 851.892 125.268C849.266 123.727 846.446 122.375 842.948 121.579C831.927 119.083 819.313 121.598 812.565 127.637C805.902 133.601 807.151 140.709 815.836 145.807C853.043 167.66 890.261 189.52 927.521 211.341C935.367 215.941 939.274 221.399 939.156 227.919C938.994 237.345 929.179 245.963 914.348 249.551C898.882 253.291 882.781 251.415 870.985 244.491C852.656 233.738 834.327 222.985 816.009 212.22C812.898 210.387 809.325 209.054 805.02 208.435C794.02 206.856 782.311 209.92 776.617 215.865C770.87 221.86 772.506 228.323 781.019 233.321C825.157 259.224 869.273 285.139 913.433 311.029C922.753 316.494 926.983 322.995 925.057 330.665C922.646 340.211 913.498 346.87 898.042 349.965C882.802 353.017 868.843 351.235 857.198 344.412C840.322 334.519 823.456 324.612 806.591 314.712C760.365 287.578 714.129 260.449 667.924 233.308C665.277 231.754 662.338 230.509 658.797 229.789C647.733 227.534 635.367 230.314 628.791 236.511C622.796 242.159 624.303 249.349 632.515 254.169C669.162 275.681 705.648 297.294 742.553 318.661C757.771 327.474 757.954 341.342 745.276 350.326C730.176 361.028 701.956 362.089 685.683 351.766C678.203 347.015 670.131 342.586 662.338 338C657.732 335.283 652.103 333.83 645.656 333.963C634.355 334.196 626.089 337.488 621.849 343.585C617.673 349.574 620.03 354.919 627.984 359.575C675.232 387.221 722.373 414.937 769.557 442.628C779.2 448.282 788.908 453.899 798.444 459.616C805.536 463.868 809.228 468.986 808.808 475.013H803.965C804.137 469.384 800.263 464.797 793.579 460.88C737.129 427.762 680.721 394.619 624.217 361.533C617.694 357.711 614.358 353.314 615.079 347.931C616.091 340.445 622.742 335.119 634.431 332.377C645.947 329.673 656.817 330.665 665.933 335.984C673.951 340.659 681.927 345.36 689.912 350.048C697.306 354.394 706.196 356.536 716.669 355.955C731.435 355.133 741.853 350.547 747.159 342.498C752.455 334.474 749.646 327.152 739.227 321.024C702.483 299.417 665.718 277.817 628.866 256.273C621.214 251.8 618.835 246.462 620.923 240.504C623.345 233.599 630.76 228.936 642.212 226.915C653.491 224.918 663.479 226.453 672.003 231.482C705.723 251.371 739.572 271.177 773.367 291.014C802.663 308.211 831.948 325.408 861.266 342.599C869.241 347.274 878.971 349.207 890.013 348.146C904.468 346.762 914.369 341.828 918.847 333.653C923.238 325.623 919.428 318.712 909.289 312.773C865.28 287.015 821.401 261.182 777.392 235.431C770.924 231.647 767.749 227.23 768.491 221.93C769.546 214.387 776.316 209.016 788.176 206.357C799.692 203.773 810.53 204.809 819.625 210.166C838.04 221.02 856.53 231.824 874.978 242.665C891.326 252.274 918.136 249.614 929.609 237.794C937.789 229.366 935.378 220.11 923.614 213.199C886.408 191.339 849.179 169.499 811.94 147.658C809.368 146.155 807.194 144.506 805.752 142.541C799.994 134.726 804.912 125.616 817.494 120.606C827.589 116.581 844.272 116.506 855.002 122.836C918.19 160.111 981.626 197.246 1044.98 234.426C1054.47 239.992 1065.88 241.717 1078.6 239.556C1105.05 235.064 1113.03 215.852 1094.06 205.295C1078.12 196.425 1062.95 187.081 1047.35 178.003C1040.45 173.985 1036.81 169.322 1037.94 163.535C1039.37 156.131 1046.16 150.956 1057.81 148.379C1069.57 145.776 1080.34 147.121 1089.43 152.485C1105.16 161.785 1121.04 171.003 1136.76 180.309C1143.86 184.516 1152.32 186.689 1162.37 186.336C1177.3 185.811 1187.88 181.345 1193.79 173.378C1199.53 165.639 1196.54 157.527 1186.41 151.588C1160.92 136.621 1135.43 121.661 1109.94 106.7C1091.1 95.6444 1072.31 84.5694 1053.42 73.5512C1046.13 69.2931 1043.11 64.2199 1044.82 58.3191C1046.9 51.1485 1054.08 46.227 1065.79 44.0347C1077.41 41.8614 1087.81 43.384 1096.56 48.6467C1107.21 55.0529 1118.12 61.3074 1128.89 67.6315C1162.82 87.5451 1196.72 107.471 1230.65 127.378C1237.38 131.327 1245.73 133.184 1255.06 132.818C1270.45 132.212 1281.5 127.562 1286.94 119.083C1292.2 110.895 1288.88 103.662 1278.25 97.4387C1234.23 71.6875 1190.34 45.8669 1146.37 20.0841C1141.45 17.2032 1138.11 13.9117 1137.28 9.79251C1136.63 6.62732 1137.62 3.61375 1139.22 0.631776L1139.2 0.619141Z" fill="#1509CE" fill-opacity="0.35"/>
<path d="M799.122 475H794.279C794.322 470.931 791.362 467.697 786.53 464.866C729.864 431.647 673.263 398.403 616.629 365.172C606.749 359.379 603.348 352.353 606.071 344.469C609.192 335.428 618.599 329.237 633.548 326.457C648.659 323.652 662.231 325.604 673.575 332.276C681.496 336.932 689.439 341.575 697.35 346.232C700.062 347.824 703.173 349.03 706.843 349.7C717.885 351.703 730.026 348.822 736.246 342.725C741.854 337.229 740.745 329.951 732.372 325.073C695.574 303.65 659.024 282.075 622.334 260.582C613.304 255.288 609.16 248.97 610.742 241.546C612.809 231.823 621.925 225.032 637.52 221.784C652.825 218.6 666.891 220.388 678.634 227.237C690.526 234.174 702.355 241.148 714.215 248.111C765.456 278.183 816.698 308.256 867.918 338.334C871.233 340.28 874.967 341.752 879.595 342.327C890.842 343.73 902.132 340.583 907.74 334.55C912.217 329.723 911.83 322.3 903.015 317.17C858.554 291.311 814.384 265.282 770.16 239.278C758.622 232.493 755.749 224.318 760.915 215.416C770.676 198.611 807.065 193.948 827.105 206.35C837.287 212.649 847.974 218.664 858.447 224.798C866.572 229.562 874.677 234.325 882.835 239.064C887.355 241.692 892.963 242.911 899.205 242.728C910.398 242.412 918.503 239.089 922.636 233.043C926.704 227.104 924.433 221.784 916.555 217.179C879.326 195.408 842.206 173.574 805.042 151.771C802.233 150.122 799.811 148.309 797.982 146.231C789.038 136.065 794.322 123.404 810.402 116.512C826.427 109.644 847.867 110.579 861.783 118.748C924.756 155.707 987.718 192.666 1050.69 229.618C1051.77 230.25 1052.83 230.895 1053.98 231.476C1057.93 233.472 1062.54 234.534 1067.74 234.616C1078.66 234.793 1088.45 231.166 1092.6 225.442C1096.91 219.51 1094.85 213.843 1086.6 208.997C1070.99 199.843 1055.4 190.676 1039.76 181.553C1030.46 176.132 1026.45 169.613 1028.37 162.031C1030.77 152.555 1039.91 145.978 1055.22 142.819C1070.5 139.666 1084.44 141.492 1096.09 148.265C1112.2 157.64 1128.2 167.079 1144.23 176.511C1147.35 178.35 1150.95 179.664 1155.24 180.271C1166.15 181.806 1177.78 178.729 1183.41 172.847C1189.06 166.94 1187.42 160.199 1179.14 155.334C1134.89 129.356 1090.64 103.365 1046.34 77.4113C1038.49 72.8056 1034.57 67.3597 1034.66 60.8461C1034.8 51.4453 1044.66 42.771 1059.45 39.1889C1074.89 35.4488 1091.03 37.3125 1102.87 44.2052C1110.12 48.4317 1117.37 52.6646 1124.6 56.9102C1162.06 78.9086 1199.55 100.907 1236.96 122.937C1243.09 126.544 1250.37 127.726 1258.63 126.728C1268.5 125.534 1275.14 121.932 1278.2 116.36C1281.29 110.75 1278.87 105.829 1271.71 101.634C1227.49 75.7118 1183.3 49.7585 1139.11 23.8178C1137.4 22.8133 1135.68 21.8088 1134.3 20.6337C1126.98 14.4549 1125.72 7.73281 1128.98 0.59375H1134.36C1129.83 8.67415 1132.47 15.7753 1142.78 21.8277C1186.98 47.7684 1231.15 73.728 1275.41 99.6371C1282.96 104.06 1285.89 109.259 1283.85 115.318C1281.57 122.135 1274.47 126.81 1263.42 129.015C1252.76 131.137 1242.6 130.228 1234.21 125.458C1225.18 120.334 1216.3 115.128 1207.43 109.916C1171.21 88.6632 1135.02 67.4103 1098.85 46.1321C1091.48 41.7918 1082.65 39.7764 1072.31 40.3829C1057.57 41.2422 1047.12 45.8541 1041.94 53.9282C1036.85 61.8633 1039.48 69.1476 1049.89 75.2632C1094.23 101.28 1138.41 127.378 1182.95 153.268C1197.88 161.949 1193.2 177.781 1171.51 182.431C1159.48 185.009 1148.64 183.467 1139.46 178.034C1123.75 168.722 1107.87 159.504 1092.12 150.211C1083.89 145.365 1073.97 143.451 1062.65 144.689C1048.73 146.205 1039.12 151.013 1034.72 158.961C1030.41 166.719 1033.44 173.605 1043.28 179.392C1059.04 188.673 1074.79 197.967 1090.66 207.184C1097.58 211.209 1100.68 215.941 1099.45 221.608C1097.86 228.867 1091.03 233.934 1079.53 236.397C1068.04 238.861 1057.41 237.73 1048.38 232.417C1003.46 205.996 958.475 179.626 913.519 153.237C895.255 142.516 876.969 131.813 858.737 121.073C850.514 116.228 840.645 114.016 829.161 115.116C814.825 116.493 804.967 121.427 800.435 129.495C795.99 137.424 799.51 144.379 809.594 150.28C846.672 171.994 883.664 193.753 920.73 215.467C926.65 218.935 929.577 222.991 929.438 227.919C929.222 235.096 921.721 241.654 909.882 244.415C899.689 246.79 886.957 245.855 877.938 240.441C859.889 229.6 841.484 218.96 823.209 208.246C815.514 203.735 806.237 201.587 795.388 202.414C780.707 203.526 770.483 208.277 765.618 216.433C760.936 224.274 763.81 231.362 773.948 237.314C818.215 263.292 862.45 289.29 906.76 315.237C914.563 319.804 917.351 325.193 914.951 331.391C912.314 338.208 904.985 342.82 893.619 344.778C882.458 346.705 872.513 345.246 864.032 340.261C801.253 303.34 738.377 266.47 675.545 229.581C673.575 228.424 671.519 227.325 669.184 226.428C654.848 220.906 634.872 222.821 623.776 230.775C612.001 239.209 612.583 250.606 625.207 258.023C662.167 279.731 699.126 301.439 736.128 323.115C743.468 327.411 746.127 332.522 744.211 338.404C741.918 345.429 734.697 350.218 723.202 352.322C711.944 354.388 701.644 353.093 693.109 347.912C685.253 343.148 677.234 338.473 669.13 333.849C661.09 329.256 651.372 327.322 640.297 328.472C626.197 329.938 616.479 334.765 612.001 342.719C607.632 350.49 610.624 357.464 620.558 363.315C625.433 366.189 630.32 369.045 635.206 371.913C687.082 402.358 738.937 432.81 790.835 463.243C796.389 466.503 799.391 470.318 799.112 474.968L799.122 475Z" fill="#1509CE" fill-opacity="0.35"/>
<path d="M1065.49 475C1064.66 474.45 1063.88 473.875 1062.99 473.357C1045.12 462.857 1027.16 452.401 1009.37 441.851C995.274 433.499 990.968 423.523 997.168 412.385C1003.44 401.101 1017.16 394.303 1037.04 392.288C1053.28 390.645 1067.6 393.413 1079.36 400.28C1097.67 410.97 1115.9 421.71 1134.17 432.431C1139.38 435.489 1146.06 436.102 1152.05 434.08C1158.58 431.881 1161.78 427.636 1159.95 423.593C1159.24 422.007 1157.52 420.813 1155.6 419.682C1118.61 397.987 1081.62 376.298 1044.69 354.584C1030.37 346.162 1025.94 336.123 1032.33 324.871C1038.91 313.291 1053.16 306.544 1073.69 304.768C1089.43 303.41 1103.15 306.285 1114.4 312.88C1177.58 349.934 1240.76 386.994 1303.84 424.117C1308.51 426.865 1313.65 427.788 1319.68 426.625C1325.81 425.45 1329.43 422.784 1330.52 419.05C1331.37 416.119 1329.52 413.731 1325.97 411.658C1310.27 402.485 1294.66 393.261 1278.96 384.094C1265.44 376.203 1260.84 366.745 1265.73 356.03C1270.84 344.848 1283.48 337.64 1302.67 334.847C1320.21 332.295 1335.76 334.942 1348.65 342.378C1364.76 351.678 1380.63 361.116 1396.63 370.498C1401.69 373.461 1408.92 373.979 1414.8 371.819C1421.23 369.462 1424.17 365.122 1422.01 361.205C1421.21 359.752 1419.58 358.659 1417.79 357.604C1373.77 331.777 1329.8 305.924 1285.73 280.135C1275.2 273.976 1269.62 266.634 1270.7 257.985C1272.25 245.622 1282.84 236.562 1302.69 232.013C1322.32 227.515 1340.41 229.663 1355.5 238.4C1382.89 254.258 1409.98 270.292 1437.21 286.245C1438.1 286.763 1439.07 287.224 1440.01 287.717V292.139C1439.07 291.646 1438.11 291.185 1437.22 290.667C1408.63 273.881 1380.05 257.082 1351.46 240.296C1341.47 234.433 1329.34 231.95 1315.42 233.1C1297.22 234.597 1284.48 240.561 1278.32 250.682C1272.12 260.879 1275.88 270.096 1289 277.81C1333.22 303.808 1377.51 329.774 1421.77 355.759C1428.26 359.568 1429.59 364.888 1425.36 369.519C1418.92 376.563 1402.69 378.623 1392.41 372.419C1376.73 362.948 1360.66 353.687 1344.74 344.349C1335.81 339.105 1324.97 336.761 1312.38 336.976C1289.34 337.381 1269.5 349.037 1268.95 362.55C1268.65 370.043 1273 376.456 1282.05 381.769C1298.03 391.145 1314.01 400.526 1329.98 409.908C1336.27 413.604 1337.53 418.968 1333.33 423.555C1326.73 430.751 1310.4 432.317 1300.35 426.398C1237.42 389.268 1174.25 352.284 1111.16 315.249C1098.9 308.06 1084.35 305.874 1067.71 308.502C1045.76 311.971 1031.44 325.339 1035.35 338.473C1037.07 344.197 1041.9 348.854 1048.81 352.903C1085.86 374.624 1122.87 396.376 1159.93 418.09C1164.11 420.535 1166 423.435 1165.45 426.802C1164.64 431.856 1160.12 435.539 1152.05 437.346C1144.12 439.122 1136.76 438.332 1130.54 434.668C1112.18 423.858 1093.77 413.067 1075.37 402.289C1073.79 401.36 1072.14 400.451 1070.33 399.68C1054.32 392.838 1033.1 393.198 1016.85 400.672C995.726 410.388 993.874 428.874 1012.53 439.507C1031.95 450.582 1050.9 461.948 1070.03 473.193C1070.97 473.743 1072.16 474.185 1072.49 475.019H1065.49V475Z" fill="#1509CE" fill-opacity="0.35"/>
<path d="M1440 295.923V300.346C1439.07 299.847 1438.13 299.373 1437.23 298.849C1406.37 280.717 1375.48 262.597 1344.64 244.446C1336.73 239.79 1327.22 237.825 1316.25 238.792C1301.96 240.049 1292.01 244.844 1287.37 252.824C1282.88 260.582 1285.59 267.658 1295.68 273.577C1340.01 299.588 1384.34 325.604 1428.66 351.621C1438.04 357.13 1440.25 365.008 1434.34 371.812C1428.25 378.831 1415.29 382.805 1402.47 381.731C1395.14 381.118 1389.54 378.85 1384.49 375.875C1368.73 366.587 1352.91 357.338 1337.14 348.064C1334.9 346.743 1332.41 345.663 1329.59 344.81C1314.41 340.236 1295.83 343.035 1285.35 351.482C1275.28 359.594 1276.63 370.378 1288.69 377.473C1304.52 386.792 1320.31 396.136 1336.28 405.366C1343.01 409.258 1346.19 413.8 1345.33 419.29C1344.18 426.65 1337.5 431.843 1326.04 434.528C1314.54 437.22 1303.66 436.247 1294.55 430.908C1278 421.198 1261.45 411.481 1244.9 401.771C1198.11 374.301 1151.3 346.844 1104.53 319.369C1096.07 314.403 1085.97 312.211 1074.19 313.493C1060.23 315.009 1050.64 319.861 1046.27 327.777C1041.88 335.713 1045.3 342.662 1055.39 348.576C1092.54 370.321 1129.6 392.111 1166.69 413.888C1167.83 414.558 1168.96 415.247 1169.92 415.999C1179.06 423.182 1176.52 433.366 1164.02 439.804C1152.82 445.578 1135.15 445.326 1124.63 439.178C1105.96 428.255 1087.37 417.281 1068.68 406.37C1060.65 401.683 1050.86 399.686 1039.68 400.83C1025.48 402.283 1015.68 407.109 1011.22 415.158C1006.91 422.948 1009.94 429.879 1019.92 435.723C1041.31 448.251 1062.67 460.804 1084.02 473.351C1084.91 473.869 1085.94 474.311 1086.48 475.006H1079.48C1078.63 474.463 1077.81 473.901 1076.92 473.376C1056.5 461.392 1036.09 449.407 1015.67 437.422C1006.19 431.85 1002.82 425.033 1005.08 417.439C1007.87 408.089 1017.39 401.695 1032.74 398.808C1048.18 395.902 1061.86 398.107 1073.39 404.911C1091.47 415.588 1109.65 426.202 1127.77 436.86C1129.96 438.142 1132.34 439.229 1135.19 439.943C1145.99 442.653 1159.08 440.202 1165.98 434.194C1172.75 428.293 1171.64 420.971 1163.16 415.992C1125.76 394.025 1088.35 372.071 1050.93 350.117C1041.29 344.469 1037.8 337.621 1040.23 329.875C1043.14 320.657 1052.51 314.352 1067.63 311.465C1082.92 308.546 1096.58 310.568 1108.1 317.334C1140.41 336.332 1172.76 355.304 1205.1 374.282C1235.92 392.37 1266.74 410.458 1297.54 428.552C1300.12 430.062 1302.92 431.332 1306.36 432.077C1317.49 434.478 1329.91 431.894 1336.59 425.772C1342.96 419.934 1341.59 412.707 1333.09 407.716C1317.19 398.366 1301.29 389.015 1285.34 379.697C1275.79 374.112 1272.04 367.371 1274.38 359.663C1277.21 350.319 1286.58 343.869 1301.93 340.963C1317.08 338.094 1330.78 340.028 1342.22 346.75C1358.06 356.056 1373.94 365.349 1389.76 374.674C1392.67 376.386 1395.93 377.726 1399.9 378.402C1411.02 380.291 1423.01 377.397 1429.01 371.376C1435.01 365.374 1433.45 358.646 1424.89 353.623C1380.63 327.645 1336.39 301.66 1292.1 275.694C1283.43 270.614 1279.39 264.543 1280.65 257.404C1282.37 247.668 1291.13 240.757 1306.62 237.288C1322.53 233.731 1336.94 235.665 1349.1 242.791C1378.55 260.045 1407.97 277.311 1437.42 294.571C1438.24 295.052 1439.14 295.487 1440 295.949V295.923Z" fill="#1509CE" fill-opacity="0.35"/>
<path d="M1440 386.248C1435.52 387.986 1431.26 389.913 1426.18 391.056C1406.72 395.428 1388.78 394.013 1373.56 385.509C1356.94 376.222 1340.98 366.524 1324.74 357.01C1319.68 354.047 1313.36 353.39 1307.31 355.19C1301.04 357.06 1297.46 361.072 1298.58 365.014C1299.08 366.796 1300.68 368.211 1302.84 369.475C1318.65 378.724 1334.46 387.979 1350.21 397.273C1364.25 405.562 1368.7 415.455 1362.75 426.562C1356.78 437.681 1343.45 444.536 1324 446.81C1307.29 448.769 1292.54 446.04 1280.42 438.932C1217.18 401.847 1153.91 364.781 1090.85 327.588C1081.36 321.997 1067.45 325.535 1064.8 331.549C1063.34 334.86 1064.59 337.696 1068.87 340.192C1086.51 350.452 1104.03 360.788 1121.6 371.098C1141.18 382.597 1160.78 394.095 1180.37 405.593C1204.41 419.707 1197.58 443.525 1166.96 452.319C1147.01 458.05 1125.31 455.921 1109.56 446.678C1091.43 436.032 1073.3 425.387 1055.16 414.748C1050.17 411.823 1043.48 411.267 1037.43 413.238C1031.3 415.241 1027.94 419.436 1029.36 423.239C1030 424.957 1031.64 426.284 1033.72 427.497C1059.79 442.786 1085.84 458.081 1111.9 473.376C1112.78 473.895 1113.6 474.457 1114.45 475H1106.92C1106.4 474.299 1105.35 473.857 1104.47 473.345C1079.69 458.789 1054.89 444.245 1030.11 429.683C1023.93 426.05 1022.3 421.331 1025.53 416.769C1028.77 412.202 1036.25 409.359 1044.67 409.201C1050.96 409.081 1055.64 410.698 1059.86 413.181C1077.85 423.763 1095.91 434.301 1113.86 444.902C1123.61 450.67 1135.37 453.198 1149 452.275C1167.63 451.018 1180.74 445.079 1187.04 434.788C1193.25 424.66 1189.8 415.398 1176.59 407.647C1139.5 385.876 1102.41 364.105 1065.32 342.327C1057.37 337.659 1056.89 331.158 1064.06 326.097C1071.97 320.506 1086.81 320.342 1093.75 325.213C1095.07 326.135 1096.65 326.937 1098.11 327.79C1159.74 363.966 1221.39 400.128 1282.98 436.323C1290.62 440.808 1299.57 443.664 1310.35 444.296C1329.13 445.389 1347.62 439.229 1355.57 429.386C1363.8 419.183 1360.47 407.192 1346.56 399.307C1330.62 390.285 1315.21 380.941 1299.49 371.781C1295.37 369.38 1293.29 366.619 1293.48 363.17C1293.73 358.4 1298.66 353.984 1306.16 352.17C1314.21 350.218 1321.89 351.122 1328.11 354.767C1343.9 364.029 1359.69 373.297 1375.48 382.565C1377.51 383.759 1379.64 384.884 1382 385.85C1399.97 393.223 1424.01 391.549 1440.01 381.82V386.242L1440 386.248Z" fill="#1509CE" fill-opacity="0.35"/>
<path d="M1093.46 475C1092.6 474.463 1091.76 473.913 1090.88 473.395C1068.05 459.995 1045.2 446.608 1022.41 433.189C1011.86 426.979 1011.31 417.287 1020.95 410.161C1030.29 403.256 1047.33 401.291 1059.71 405.688C1062.12 406.541 1064.12 407.659 1066.09 408.815C1084.23 419.461 1102.35 430.106 1120.5 440.751C1132.97 448.061 1151.52 448.819 1165.6 442.609C1179.84 436.335 1184.18 425.33 1175.94 416.39C1174.3 414.615 1172.15 413.08 1169.73 411.652C1132.63 389.881 1095.58 368.078 1058.4 346.358C1049.8 341.342 1047.25 335.466 1050.63 328.87C1054.03 322.224 1061.92 317.884 1073.56 316.424C1083.71 315.155 1092.85 316.5 1100.48 320.986C1163.59 358.077 1226.8 395.125 1289.9 432.222C1299.82 438.047 1311.38 440.151 1324.78 437.744C1338.69 435.249 1347.19 429.556 1349.79 421.173C1351.93 414.267 1348.17 408.329 1339.67 403.369C1323.89 394.164 1308.29 384.871 1292.44 375.704C1283.8 370.7 1281.46 364.787 1284.99 358.191C1288.61 351.431 1296.7 347.186 1308.64 345.815C1318.75 344.652 1327.56 346.225 1334.94 350.591C1350.67 359.897 1366.79 368.975 1382.21 378.446C1398.58 388.497 1426.73 385.888 1438.11 373.6C1438.7 372.962 1439.01 372.216 1440.01 371.724V377.726C1439.56 377.972 1439.04 378.193 1438.67 378.477C1423.96 389.597 1395.02 390.86 1377.93 380.17C1362.91 370.77 1346.98 361.868 1331.47 352.733C1328.23 350.825 1324.55 349.403 1320.04 348.778C1309.17 347.261 1297.49 350.332 1291.84 356.182C1286.07 362.152 1287.65 368.71 1296.07 373.657C1311.91 382.963 1327.77 392.275 1343.63 401.569C1352.44 406.73 1356.45 412.934 1355.02 420.187C1353.08 429.986 1344.02 436.866 1328.33 440.151C1312.95 443.373 1298.82 441.598 1287.01 434.661C1232.73 402.801 1178.44 370.94 1124.17 339.08C1115.04 333.722 1105.89 328.365 1096.78 323.001C1090.53 319.324 1082.95 318.168 1074.53 319.305C1064.72 320.626 1058.2 324.309 1055.33 329.925C1052.5 335.447 1055.02 340.23 1062.03 344.336C1099.24 366.114 1136.37 387.948 1173.55 409.75C1181.23 414.261 1185.1 419.644 1185.03 426.05C1184.93 435.59 1175.1 444.22 1159.93 447.909C1144.84 451.58 1128.5 449.64 1116.79 442.767C1098.53 432.052 1080.23 421.35 1062.02 410.597C1056.05 407.071 1048.96 405.656 1040.71 406.547C1030.59 407.64 1023.64 411.191 1020.47 416.889C1017.41 422.386 1019.42 427.314 1026.61 431.509C1050.46 445.427 1074.2 459.408 1097.97 473.37C1098.85 473.888 1099.64 474.463 1100.47 475.013H1093.47L1093.46 475Z" fill="#1509CE" fill-opacity="0.35"/>
<path d="M421.372 475C420.683 474.52 420.059 474.008 419.306 473.566C411.524 468.979 403.603 464.468 395.94 459.812C381.851 451.258 377.815 441.162 384.391 429.973C391.032 418.677 405.142 412.1 425.171 410.306C441.186 408.872 455.07 411.848 466.554 418.582C484.184 428.925 501.802 439.273 519.431 449.615C524.802 452.768 531.055 453.406 537.265 451.454C543.669 449.438 547.027 445.3 545.574 441.213C544.982 439.545 543.282 438.294 541.269 437.112C509.358 418.406 477.468 399.686 445.578 380.96C439.873 377.612 433.868 374.409 428.573 370.852C408.457 357.319 414.419 336.148 440.734 326.931C459.074 320.512 481.009 321.226 497.174 328.788C498.433 329.376 499.607 330.033 500.747 330.703C581.909 378.332 663.071 425.968 744.222 473.604C744.975 474.046 745.664 474.532 746.385 474.994H739.389C738.722 474.57 738.076 474.134 737.388 473.73C657.765 426.991 578.131 380.253 498.487 333.527C496.464 332.339 494.311 331.195 491.997 330.222C472.883 322.186 446.008 324.701 431.199 335.908C423.901 341.424 420.705 347.691 421.867 354.666C422.922 361.009 427.679 366.227 435.364 370.725C471.828 392.035 508.174 413.427 544.584 434.775C547.372 436.405 549.632 438.193 550.493 440.492C552.495 445.831 548.319 451.264 540.171 453.905C531.766 456.634 522.897 455.838 515.891 451.732C498.132 441.314 480.438 430.864 462.615 420.484C451.626 414.084 438.334 411.734 423.17 413.446C392.593 416.896 376.836 437.517 392.916 452.888C394.616 454.511 396.683 455.958 398.964 457.304C408.963 463.192 418.929 469.099 428.906 474.994H421.372V475Z" fill="#1509CE" fill-opacity="0.35"/>
<path d="M732.404 475H725.408C724.881 474.646 724.385 474.274 723.826 473.945C646.022 428.274 568.229 382.603 490.404 336.945C480.373 331.056 465.639 329.641 452.314 333.167C439.55 336.547 430.864 344.753 431.392 352.606C431.779 358.431 435.998 363.056 442.897 367.087C479.469 388.497 515.965 409.953 552.505 431.382C555.54 433.164 557.94 435.154 559.307 437.548C563.838 445.465 558.273 454.088 545.875 458.656C536.156 462.238 519.711 462.44 509.066 455.99C491.415 445.288 473.248 434.882 455.317 424.344C451.905 422.335 447.977 420.819 443.414 419.871C429.508 416.991 414.817 419.398 404.721 426.208C392.882 434.2 393.539 445.932 406.271 453.406C417.551 460.033 428.852 466.654 440.12 473.288C440.992 473.8 442.1 474.223 442.38 475.006H435.385C434.62 474.495 433.91 473.958 433.092 473.477C423.147 467.627 413.203 461.777 403.236 455.946C393.744 450.399 389.847 443.734 391.839 435.963C394.701 424.825 410.813 415.759 432.199 415.733C442.746 415.721 451.873 418.071 459.418 422.537C477.295 433.107 495.29 443.607 513.221 454.151C516.331 455.984 519.915 457.31 524.209 457.936C534.972 459.509 546.747 456.445 552.451 450.595C558.23 444.669 556.681 437.997 548.339 433.101C511.692 411.589 475.024 390.09 438.409 368.565C425.989 361.262 423.061 352.594 429.573 343.168C440.884 326.824 475.723 324.018 494.515 335.106C572.771 381.245 651.307 427.219 729.724 473.256C730.671 473.812 731.51 474.425 732.404 475.013V475Z" fill="#1509CE" fill-opacity="0.35"/>
<path d="M697.425 475C696.736 474.52 696.112 474.008 695.359 473.566C622.71 430.915 550.008 388.289 477.446 345.581C471.645 342.17 463.508 342.511 458.988 344.128C452.724 346.371 449.699 350.673 451.626 354.578C452.465 356.264 454.381 357.496 456.426 358.697C484.269 375.028 512.102 391.366 539.934 407.704C548.491 412.726 556.907 417.844 565.646 422.759C589.346 436.083 583.351 458.814 556.014 468.468C536.006 475.537 511.747 473.8 495.226 464.108C477.467 453.69 459.72 443.266 441.961 432.848C436.666 429.74 429.788 429.298 423.589 431.642C417.293 434.023 414.43 438.484 416.722 442.331C417.519 443.658 419.015 444.688 420.683 445.667C436.483 454.929 452.261 464.197 468.039 473.465C468.857 473.945 469.578 474.482 470.332 474.994H463.336C462.475 474.457 461.635 473.907 460.753 473.389C446.051 464.753 431.37 456.098 416.604 447.499C412.654 445.199 410.598 442.483 410.857 439.292C411.298 433.954 415.861 430.049 424.31 428.11C432.716 426.183 440.121 427.339 446.6 431.193C463.971 441.541 481.837 451.606 498.971 462.074C516.762 472.941 549.685 472.606 566.852 458.524C579.928 447.802 577.862 434.124 561.998 424.799C525.372 403.275 488.714 381.769 452.046 360.276C449.516 358.792 447.482 357.181 446.578 355.121C444.264 349.858 448.343 344.254 456.544 341.462C464.778 338.657 474.034 339.383 480.922 343.42C554.733 386.735 628.533 430.049 702.322 473.37C703.13 473.844 704.152 474.242 704.4 474.975H697.404L697.425 475Z" fill="#1509CE" fill-opacity="0.35"/>
<path d="M718.413 475H711.417C710.846 474.602 710.33 474.179 709.706 473.812C634.388 429.594 559.07 385.383 483.731 341.178C476.337 336.837 465.887 335.776 456.448 338.385C440.045 342.921 436.16 355.159 448.989 362.576C485.959 383.968 522.477 405.631 559.232 427.15C568.132 432.362 571.803 438.686 570.274 445.844C568.251 455.301 559.404 462.093 544.142 465.397C528.45 468.796 514.136 467.002 502.114 459.958C484.345 449.552 466.597 439.122 448.86 428.697C446.75 427.459 444.479 426.366 441.735 425.646C430.822 422.765 417.917 425.027 410.631 431.111C403.689 436.898 404.7 444.397 413.235 449.445C426.829 457.475 440.486 465.454 454.112 473.459C454.93 473.939 455.63 474.488 456.372 475H449.377C448.591 474.495 447.837 473.977 447.019 473.49C434.664 466.231 422.33 458.959 409.92 451.726C403.097 447.745 400.288 443.02 401.353 437.403C403.323 427.055 420.651 419.688 438.022 421.824C444.361 422.607 449.301 424.654 453.757 427.27C471.44 437.656 489.156 448.017 506.806 458.422C514.706 463.085 524.393 464.778 535.123 463.78C549.33 462.459 559.178 457.595 563.731 449.565C568.229 441.649 564.979 434.674 554.862 428.754C518.376 407.381 481.977 385.945 445.448 364.597C438.84 360.737 435.611 356.271 436.386 350.831C437.462 343.319 444.253 338.063 455.931 335.384C467.34 332.762 478.135 333.748 487.164 339.049C563.494 383.854 639.834 428.653 716.152 473.459C716.97 473.939 717.67 474.488 718.413 475Z" fill="#1509CE" fill-opacity="0.35"/>
<path d="M224.973 0.619141C225.501 1.32041 226.545 1.76265 227.416 2.27439C257.584 19.9894 287.774 37.7043 317.942 55.4193C327.478 61.0231 332.31 67.8463 332.385 75.7056C332.504 87.8546 319.233 99.1192 299.72 103.238C280.122 107.376 262.288 105.374 247.414 96.6805C193.428 65.1234 139.603 33.4525 85.7142 1.81951C85.09 1.45308 84.5626 1.02348 83.9814 0.619141C86.317 0.619141 88.6417 0.619141 90.9772 0.619141C91.6445 1.04243 92.2903 1.47835 92.9899 1.88901C145.684 32.8207 198.314 63.784 251.116 94.6525C264.505 102.48 280.67 104.394 298.214 100.414C329.63 93.2879 336.421 70.1017 313.873 57.2262C282.188 39.1321 251.245 20.5959 219.99 2.2428C219.108 1.72475 218.29 1.16247 217.439 0.625458C219.947 0.625458 222.466 0.625458 224.973 0.625458V0.619141Z" fill="#1509CE" fill-opacity="0.35"/>
<path d="M97.9736 0.619141C100.309 0.619141 102.634 0.619141 104.969 0.619141C105.626 1.04875 106.25 1.49731 106.95 1.90164C157.405 31.5193 207.85 61.1369 258.317 90.7418C266.195 95.3664 275.817 97.306 286.784 96.2825C301.013 94.9558 310.914 90.1922 315.542 82.1813C320.095 74.2904 317.017 67.3156 306.857 61.3706C273.331 41.7603 239.902 22.0995 206.44 2.44497C205.504 1.89533 204.309 1.45308 203.987 0.619141C206.322 0.619141 208.647 0.619141 210.982 0.619141C211.876 1.20669 212.715 1.81951 213.662 2.37548C246.123 21.4361 278.583 40.4968 311.054 59.5448C319.89 64.7317 323.722 71.0557 322.194 78.239C320.149 87.9115 311.054 94.7473 295.427 98.0199C279.961 101.261 265.905 99.4035 254.13 92.4919C202.77 62.3562 151.411 32.2016 100.051 2.05327C99.2974 1.61103 98.6624 1.09929 97.9736 0.619141Z" fill="#1509CE" fill-opacity="0.35"/>
<path d="M111.965 0.619141C114.3 0.619141 116.625 0.619141 118.961 0.619141C119.789 1.16878 120.564 1.7437 121.447 2.26176C143.371 15.1373 165.294 28.0066 187.229 40.8758C213.21 56.1269 239.223 71.3653 265.162 86.6416C269.865 89.4088 275.462 90.9314 282.005 90.8113C293.306 90.5965 301.335 87.2355 305.812 81.1957C309.988 75.5603 307.631 69.8996 299.656 65.2181C263.999 44.2748 228.31 23.3378 192.642 2.38811C191.695 1.83215 190.587 1.35832 189.995 0.619141C192.33 0.619141 194.655 0.619141 196.99 0.619141C197.841 1.16247 198.659 1.71843 199.541 2.2428C219.377 13.8927 239.223 25.5363 259.059 37.18C274.084 45.9995 289.076 54.8381 304.144 63.6261C311.334 67.821 314.024 72.8816 312.27 78.6244C310.075 85.8266 302.756 90.7039 290.906 92.9025C279.239 95.0695 269.112 93.2879 260.437 88.1895C211.682 59.5132 162.84 30.8812 114.042 2.22385C113.235 1.75002 112.212 1.352 111.965 0.619141Z" fill="#1509CE" fill-opacity="0.35"/>
<path d="M1440 356.245C1437.58 353.187 1433.81 350.761 1429.78 348.405C1386.57 323.096 1343.43 297.749 1300.26 272.421C1295.68 269.736 1291.78 266.817 1290.73 262.938C1288.71 255.395 1292.64 249.134 1303.32 244.712C1313.3 240.586 1324.07 240.169 1335.05 243.486C1337.79 244.314 1339.99 245.565 1342.16 246.834C1373.85 265.434 1405.55 284.027 1437.26 302.62C1438.14 303.138 1439.09 303.631 1440 304.136V308.243C1438.58 308.047 1437.82 307.346 1436.88 306.802C1404.01 287.47 1371.13 268.138 1338.31 248.774C1330.94 244.427 1322.3 243.328 1312.63 245.192C1295.21 248.546 1289.3 261.643 1301.84 269.022C1347.86 296.113 1393.94 323.178 1439.99 350.256V356.258L1440 356.245Z" fill="#1509CE" fill-opacity="0.35"/>
<path d="M132.952 0.619141C133.425 1.26987 134.394 1.68684 135.212 2.16699C180.663 28.8532 226.179 55.4888 271.501 82.2508C277.646 85.8772 287.343 85.6687 293.08 82.2255C299.355 78.4538 299.494 73.2922 293.177 69.5837C255.012 47.181 216.837 24.7782 178.683 2.37548C177.736 1.81951 176.896 1.20669 176.003 0.619141C178.338 0.619141 180.663 0.619141 182.999 0.619141C183.924 1.19406 184.818 1.77529 185.775 2.33757C222.918 24.1401 260.071 45.9427 297.202 67.7452C303.143 71.2326 304.521 76.2173 301.077 80.6903C294.974 88.5812 277.474 90.1543 267.465 84.2219C220.959 56.6702 174.119 29.327 127.398 1.90164C126.699 1.49099 126.074 1.04875 125.418 0.619141C127.926 0.619141 130.444 0.619141 132.952 0.619141Z" fill="#1509CE" fill-opacity="0.35"/>
<path d="M1440 316.45C1438.82 316.241 1438.11 315.673 1437.29 315.192C1408.19 298.115 1379.08 281.045 1350 263.962C1343.66 260.241 1337.43 256.463 1331.1 252.735C1326.04 249.759 1319.2 249.254 1313.15 251.345C1306.9 253.506 1303.7 257.764 1305.47 261.574C1306.07 262.869 1307.17 263.987 1308.79 264.947C1351.91 290.244 1395 315.546 1438.12 340.842C1438.68 341.171 1439.36 341.43 1439.99 341.721V346.143C1439.32 345.796 1438.62 345.461 1437.99 345.094C1394.03 319.305 1350.11 293.497 1306.12 267.733C1301.38 264.954 1299.26 261.719 1300.15 257.878C1301.28 253.019 1305.99 249.614 1313.7 247.921C1321.24 246.266 1328.33 246.916 1334.29 250.398C1342.87 255.408 1351.53 260.373 1360.1 265.39C1385.8 280.451 1411.47 295.538 1437.16 310.606C1438.04 311.124 1438.79 311.737 1439.99 312.04V316.462L1440 316.45Z" fill="#1509CE" fill-opacity="0.35"/>
<path d="M881.457 475C880.424 473.926 878.734 473.193 877.292 472.34C871.814 469.087 866.282 465.865 860.761 462.624C846.5 454.253 842.432 442.066 850.278 431.149C861.331 415.752 890.778 408.777 916.899 415.405C921.871 416.668 926.317 418.456 930.159 420.705C960.456 438.477 990.742 456.262 1021.03 474.04C1021.53 474.337 1021.96 474.672 1022.44 474.987H1014.9C1014.28 474.545 1013.72 474.065 1013.03 473.661C984.134 456.685 955.225 439.722 926.317 422.752C923.572 421.141 920.483 419.802 917.039 418.753C899.162 413.326 878.035 415.556 863.602 424.389C847.189 434.434 847.426 450.475 864.151 460.311C871.556 464.671 878.993 469.017 886.398 473.376C887.205 473.85 888.227 474.248 888.475 474.981H881.479L881.457 475Z" fill="#1509CE" fill-opacity="0.35"/>
<path d="M902.445 475H895.449C894.685 474.488 893.974 473.951 893.146 473.471C884.772 468.562 876.388 463.666 868.004 458.764C858.436 453.166 854.464 446.393 856.821 438.61C859.641 429.285 868.908 422.797 884.277 419.89C899.41 417.028 913.121 418.861 924.584 425.589C951.77 441.548 978.957 457.506 1006.14 473.471C1006.96 473.951 1007.68 474.488 1008.45 475H1001.45C1000.65 474.501 999.88 473.989 999.051 473.503C972.994 458.208 946.906 442.925 920.892 427.604C913.692 423.365 905.114 421.223 894.975 421.634C880.047 422.241 869.425 426.77 863.828 434.8C858.242 442.817 860.89 450.222 871.287 456.464C880.812 462.188 890.541 467.785 900.163 473.452C900.981 473.932 901.68 474.482 902.434 474.994L902.445 475Z" fill="#1509CE" fill-opacity="0.35"/>
<path d="M0.0429688 85.2644C1.47441 85.4539 2.2278 86.1552 3.16416 86.7049C24.4851 99.2014 45.7846 111.71 67.0948 124.213C84.7349 134.568 86.3601 151.013 70.8725 162.524C53.6629 175.311 24.2161 177.725 1.70043 168.191C1.20534 167.983 0.602631 167.856 0.0537315 167.698C0.0537315 166.327 0.0537315 164.963 0.0537315 163.592C0.721021 163.851 1.45289 164.066 2.03407 164.382C10.5689 169 20.6428 171.059 32.2128 170.958C49.756 170.807 66.1692 164.243 73.0251 154.488C79.9455 144.645 76.3292 133.917 63.5108 126.387C43.18 114.446 22.8492 102.512 2.49687 90.5839C1.74348 90.1417 0.871699 89.7753 0.0537315 89.3709C0.0537315 88 0.0537315 86.6354 0.0537315 85.2644H0.0429688Z" fill="#1509CE" fill-opacity="0.35"/>
<path d="M909.43 475C904.016 471.784 898.624 468.556 893.199 465.347C886.946 461.651 880.65 457.98 874.386 454.297C862.762 447.461 863.279 435.982 875.495 429.443C886.677 423.46 902.154 422.664 913.476 427.51C914.703 428.034 915.833 428.64 916.91 429.272C942.138 444.068 967.355 458.871 992.572 473.68C993.261 474.084 993.831 474.558 994.455 475H987.459C986.997 474.684 986.555 474.343 986.049 474.052C961.586 459.692 937.122 445.332 912.658 430.972C911.442 430.258 910.097 429.658 908.622 429.152C897.881 425.494 884.169 427.345 876.044 433.556C868.585 439.261 869.403 447.202 878.002 452.269C890.035 459.345 902.089 466.408 914.122 473.478C914.94 473.958 915.661 474.495 916.425 475.006H909.43V475Z" fill="#1509CE" fill-opacity="0.35"/>
<path d="M868.542 0.619141C868.66 1.1751 869.338 1.55417 869.844 1.97746C891.068 19.9957 871.62 45.1087 833.552 47.6674C818.193 48.6972 804.88 45.8858 793.902 39.4607C772.506 26.9326 751.152 14.3792 729.788 1.83215C729.164 1.46572 728.658 1.02348 728.099 0.619141C730.434 0.619141 732.759 0.619141 735.094 0.619141C735.816 1.08665 736.504 1.57312 737.258 2.01536C757.406 13.8485 777.543 25.6943 797.734 37.5022C808.367 43.7188 821.325 45.9553 835.941 44.477C860.642 41.9878 877.27 27.9624 872.825 13.6716C871.265 8.66164 867.282 4.38452 861.546 0.619141H868.542Z" fill="#1509CE" fill-opacity="0.35"/>
<path d="M40.9414 0.619141C41.4149 1.26987 42.3836 1.68684 43.1908 2.16699C55.2235 9.23655 67.3639 16.2429 79.2675 23.382C93.5388 31.9362 97.4672 42.1078 90.8482 53.3218C84.2398 64.5358 70.1945 71.0936 50.2942 72.8942C34.2039 74.3473 20.2446 71.4222 8.71773 64.6053C5.88713 62.9311 3.22874 61.1432 0.0429688 59.6838V55.5772C4.63866 57.7758 8.524 60.404 12.7538 62.8237C23.0106 68.7055 35.3878 71.1694 49.4116 69.9691C67.6975 68.4023 80.3975 62.2551 86.2848 52.0203C92.1074 41.9246 88.2221 32.8333 75.1884 25.2205C62.1762 17.6139 49.1964 9.97573 36.2058 2.33757C35.334 1.82583 34.2254 1.40254 33.9456 0.619141H40.9414Z" fill="#1509CE" fill-opacity="0.35"/>
<path d="M1440 262.446C1439.06 261.959 1438.08 261.504 1437.2 260.986C1417.48 249.425 1397.95 237.749 1378.03 226.314C1350.95 210.773 1363.06 184.074 1399.13 177.586C1412.63 175.16 1425.5 176.088 1437.83 180.056C1438.53 180.283 1439.28 180.454 1440 180.65V184.44C1429.56 179.929 1417.9 178.211 1405.21 179.759C1387.59 181.913 1375.58 188.142 1370.36 198.226C1365.26 208.081 1369.13 216.901 1381.76 224.274C1396.69 232.986 1411.54 241.742 1426.44 250.473C1430.94 253.108 1435.48 255.723 1440 258.345V262.452V262.446Z" fill="#1509CE" fill-opacity="0.35"/>
<path d="M973.468 475C972.951 474.64 972.489 474.248 971.929 473.92C950.145 461.126 928.361 448.333 906.556 435.552C901.282 432.462 893.458 432.248 887.474 434.958C880.908 437.934 878.885 442.817 882.77 446.57C883.545 447.322 884.632 447.979 885.698 448.611C899.808 456.912 913.939 465.201 928.06 473.496C928.878 473.976 929.631 474.501 930.417 475.006H923.421C922.625 474.507 921.85 473.995 921.032 473.515C907.718 465.7 894.426 457.873 881.081 450.076C878.584 448.617 876.883 446.93 876.216 444.908C874.408 439.463 878.82 434.092 887.183 431.49C895.266 428.981 904.199 429.86 911.055 433.878C933.506 447.044 955.946 460.223 978.387 473.402C979.194 473.875 980.216 474.273 980.464 475.006H973.468V475Z" fill="#1509CE" fill-opacity="0.35"/>
<path d="M847.555 0.619111C850.063 0.619111 852.581 0.619111 855.089 0.619111C855.605 1.32038 856.671 1.74999 857.521 2.28068C867.003 8.09933 870.523 14.992 867.961 22.8765C864.356 33.9768 847.189 42.3036 828.128 42.1709C817.139 42.0951 807.808 39.6375 800.016 35.0382C781.375 24.039 762.648 13.084 743.953 2.1101C743.21 1.66786 742.285 1.29511 742.069 0.612793C744.405 0.612793 746.73 0.612793 749.065 0.612793C749.517 0.934998 749.915 1.28879 750.41 1.58573C768.707 12.3322 787.004 23.0787 805.322 33.8189C808.013 35.392 811.112 36.6303 814.621 37.5021C829.452 41.2107 846.479 38.4877 856.456 30.8116C867.165 22.5796 865.927 11.5488 853.507 4.23918C851.483 3.05144 849.524 1.8258 847.533 0.612793L847.555 0.619111Z" fill="#1509CE" fill-opacity="0.35"/>
<path d="M0.0429688 51.4707C0.0429688 50.0998 0.0429688 48.7351 0.0429688 47.3642C0.850174 47.7748 1.70043 48.1602 2.45382 48.6024C8.10426 51.9003 13.7332 55.2171 19.3728 58.5213C28.9301 64.1315 40.3494 65.7362 53.2001 63.6892C70.0438 61.0042 81.0648 50.9274 78.6325 40.7874C77.5024 36.0933 73.6063 32.3216 67.9989 29.0427C52.7266 20.0904 37.465 11.1256 22.2142 2.16067C21.3962 1.68052 20.7074 1.1372 19.954 0.619141C22.2895 0.619141 24.6143 0.619141 26.9498 0.619141C27.5848 1.05507 28.1768 1.52258 28.8656 1.92691C43.2338 10.3737 57.6128 18.8079 71.9918 27.2485C84.9932 34.8803 87.8238 45.6205 78.9984 55.0529C65.7602 69.192 33.3752 71.5927 15.7027 60.5556C10.6766 57.422 5.27366 54.4906 0.0537315 51.4644L0.0429688 51.4707Z" fill="#1509CE" fill-opacity="0.35"/>
<path d="M0.0429688 93.1616C0.903988 93.6228 1.78653 94.0651 2.6045 94.5452C21.8052 105.81 40.866 117.15 60.2282 128.314C80.3114 139.894 73.0358 160.686 45.1711 166.669C29.3284 170.068 15.0355 168.204 2.99196 161.09C2.04484 160.534 1.03314 160.016 0.0429688 159.485C0.0429688 158.114 0.0429688 156.75 0.0429688 155.379C3.05653 156.718 5.4351 158.449 8.19036 159.953C16.3055 164.369 25.9489 166.113 36.7008 164.994C50.8646 163.516 60.5726 158.576 64.9746 150.546C69.3227 142.598 65.7064 135.661 55.6433 129.786C38.4229 119.74 21.2886 109.638 4.11128 99.5615C2.7767 98.7844 1.39907 98.0326 0.0429688 97.2682C0.0429688 95.8972 0.0429688 94.5326 0.0429688 93.1616Z" fill="#1509CE" fill-opacity="0.35"/>
<path d="M1313.01 0.619111C1318.26 9.04699 1317.38 17.2411 1310.3 25.2015C1294.93 42.4679 1255.06 46.0627 1231.61 32.3026C1214.55 22.289 1197.49 12.2817 1180.45 2.26173C1179.56 1.74367 1178.79 1.16875 1177.96 0.619111C1180.3 0.619111 1182.62 0.619111 1184.96 0.619111C1185.61 1.04872 1186.24 1.49728 1186.94 1.90161C1202.97 11.3214 1218.96 20.7664 1235.07 30.1356C1247.43 37.3189 1262.25 39.6059 1278.83 36.6429C1295.6 33.6483 1306.04 26.8315 1310.28 16.8368C1312.64 11.2708 1311.18 5.86916 1307.63 0.612793H1313.01V0.619111Z" fill="#1509CE" fill-opacity="0.35"/>
<path d="M12.9582 0.619141C13.7439 1.12456 14.4973 1.64262 15.3153 2.12908C31.9652 11.909 48.6044 21.7015 65.2974 31.4561C74.6072 36.8957 76.4261 43.2955 71.9918 50.3082C67.7298 57.0556 56.4504 61.4654 44.3854 61.6612C35.8075 61.8002 28.7041 60.1008 22.7093 56.4933C15.2722 52.014 7.60915 47.6611 0.0537109 43.2513C0.0537109 41.8804 0.0537109 40.5157 0.0537109 39.1448C0.850153 39.5681 1.66812 39.9724 2.43228 40.421C10.4828 45.1403 18.5441 49.8534 26.5731 54.5917C29.7481 56.4617 33.3967 57.8137 37.7986 58.4202C48.7874 59.9428 60.282 56.8597 66.0508 50.8453C71.6151 45.0456 69.9684 38.374 61.6704 33.4967C43.9334 23.0851 26.1856 12.6797 8.45941 2.26176C7.57686 1.7437 6.79118 1.16878 5.96245 0.619141C8.29797 0.619141 10.6227 0.619141 12.9582 0.619141Z" fill="#1509CE" fill-opacity="0.35"/>
<path d="M1440 254.233C1439.18 253.828 1438.31 253.455 1437.56 253.013C1419.86 242.639 1402.18 232.266 1384.51 221.879C1373.14 215.201 1369.97 205.611 1376.17 196.804C1382.29 188.117 1396.85 182.286 1412.33 182.122C1422.27 182.014 1431.05 183.625 1438.61 187.441C1439.01 187.643 1439.54 187.751 1440 187.902V192.009C1438.85 191.883 1438.2 191.339 1437.45 190.903C1426.84 184.788 1412.49 183.208 1399.02 186.885C1375.78 193.228 1371.52 210.59 1388.45 220.091C1405.11 229.435 1421.12 239.177 1437.42 248.736C1438.23 249.216 1439.13 249.658 1439.99 250.12V254.226L1440 254.233Z" fill="#1509CE" fill-opacity="0.35"/>
<path d="M0.0429688 1.56689C0.925513 2.00914 1.85111 2.41979 2.66908 2.89362C21.2563 13.7854 39.6068 24.8162 58.4954 35.5248C66.0831 39.8272 65.9001 48.0719 58.151 52.3742C49.7991 57.0115 37.7018 57.201 29.6943 52.5195C20.6751 47.2505 11.6882 41.9563 2.67984 36.6746C1.86187 36.1945 1.16229 35.6322 0.0429688 35.3542V31.2477C1.38831 31.4119 2.09865 32.0627 2.97043 32.5744C13.0013 38.4436 22.9999 44.3254 33.02 50.2009C39.5099 54.0042 48.1309 53.9537 54.7069 50.1378C59.7008 47.2442 61.7457 41.6088 54.7822 37.5654C37.0668 27.2991 19.5128 16.9127 1.89416 6.57687C1.3345 6.24835 0.667207 5.97037 0.0537315 5.67343V1.56689H0.0429688Z" fill="#1509CE" fill-opacity="0.35"/>
<path d="M755.533 0.619141C758.041 0.619141 760.559 0.619141 763.067 0.619141C763.541 1.27619 764.499 1.68684 765.317 2.16699C780.524 11.1003 795.98 19.8946 810.865 29.0111C820.346 34.8171 836.092 34.6908 845.876 29.207C855.96 23.5589 856.918 13.7158 846.446 8.23835C842.776 6.31775 839.44 4.16972 835.963 2.11645C835.221 1.6742 834.295 1.30146 834.08 0.619141H841.075C844.003 2.75454 847.522 4.5551 850.783 6.49465C857.768 10.6454 860.147 15.6807 858.479 21.2782C856.348 28.4236 849.04 33.3072 837.373 35.4994C825.846 37.6601 815.557 36.087 806.872 30.9254C790.566 21.234 774.088 11.6499 757.686 2.01536C756.932 1.57312 756.233 1.08665 755.512 0.619141H755.533Z" fill="#1509CE" fill-opacity="0.35"/>
<path d="M643.074 0.619111C646.077 2.42599 649.047 4.2455 652.082 6.0271C659.164 10.2031 666.257 14.3665 673.36 18.5236C679.344 22.0236 680.184 26.2502 677.493 30.6284C674.705 35.1709 668.883 37.9191 660.542 38.5256C653.88 39.0121 648.401 37.7612 643.601 34.9055C625.864 24.3486 607.923 13.9053 590.057 3.42419C588.41 2.45758 586.666 1.55414 584.966 0.619111C587.474 0.619111 589.992 0.619111 592.5 0.619111C596.471 2.97563 600.421 5.34479 604.403 7.68867C618.599 16.0281 632.795 24.3675 647.013 32.6943C652.384 35.8469 658.099 36.5545 664.363 34.8992C670.508 33.2756 674.135 29.6808 673.791 25.5932C673.597 23.3377 671.606 21.6446 669.001 20.1157C658.787 14.1328 648.574 8.13723 638.381 2.14169C637.563 1.66154 636.842 1.12453 636.078 0.612793C638.414 0.612793 640.738 0.612793 643.074 0.612793V0.619111Z" fill="#1509CE" fill-opacity="0.35"/>
<path d="M0.0429893 101.368C0.850194 101.779 1.70045 102.164 2.45384 102.607C19.4482 112.576 36.4641 122.533 53.4154 132.521C62.2731 137.746 64.1997 144.032 59.8085 150.71C55.2558 157.634 46.3335 161.716 33.4075 162.354C24.1515 162.808 16.3485 161.052 9.97699 157.034C6.80199 155.031 3.35791 153.18 0.0429893 151.266C0.0429893 149.895 0.0429893 148.53 0.0429893 147.159C4.5741 149.775 9.10521 152.391 13.6256 155.012C15.6705 156.2 17.8123 157.299 20.4061 158.077C31.1796 161.305 44.407 159.226 52.0808 153.073C59.2703 147.305 58.4093 139.629 49.9067 134.619C33.9779 125.237 18.006 115.88 2.0341 106.517C1.39909 106.145 0.699516 105.816 0.0322266 105.469C0.0322266 104.098 0.0322266 102.733 0.0322266 101.362L0.0429893 101.368Z" fill="#1509CE" fill-opacity="0.35"/>
<path d="M1302.25 0.619141C1313.54 13.9243 1301.58 29.0553 1279.8 33.5346C1264.54 36.6745 1250.59 35.152 1238.88 28.373C1223.88 19.6924 1209.07 10.9108 1194.19 2.16699C1193.37 1.68684 1192.68 1.1372 1191.93 0.625458C1194.27 0.625458 1196.59 0.625458 1198.93 0.625458C1199.25 0.878168 1199.53 1.14983 1199.89 1.37095C1214.33 9.84937 1228.63 18.4226 1243.28 26.7683C1251.79 31.6203 1262.31 33.124 1273.87 31.5193C1292.11 28.9922 1303.95 18.7069 1301.15 8.04882C1300.46 5.41431 1298.43 3.07043 1296.87 0.619141H1302.25Z" fill="#1509CE" fill-opacity="0.35"/>
<path d="M1440 196.122V200.228C1435.92 198.402 1432.82 195.976 1428.9 194.056C1418.52 188.957 1403.88 189.785 1394.24 196.027C1385.41 201.738 1385.73 210.261 1394.99 215.701C1409.11 223.996 1423.24 232.291 1437.38 240.58C1438.2 241.06 1439.12 241.477 1439.99 241.925V246.032C1438.92 245.931 1438.32 245.444 1437.63 245.04C1422.22 235.999 1406.8 226.965 1391.42 217.905C1388.55 216.219 1386.12 214.336 1384.71 212.055C1380.04 204.518 1384.19 196.463 1395.17 191.44C1406.12 186.437 1424.01 186.329 1434.17 192.874C1435.96 194.031 1437.76 195.225 1439.99 196.134L1440 196.122Z" fill="#1509CE" fill-opacity="0.35"/>
<path d="M0.0429893 109.581C0.860957 109.986 1.73274 110.358 2.48613 110.801C17.0804 119.355 31.6209 127.934 46.2582 136.463C52.4037 140.045 53.5984 144.266 50.5848 148.789C47.5174 153.395 41.5226 156.137 32.9339 156.642C26.6162 157.015 21.3532 155.732 16.9405 153.073C12.1834 150.211 7.32936 147.406 2.48613 144.588C1.73274 144.146 0.860957 143.779 0.0429893 143.375C0.0429893 142.004 0.0429893 140.639 0.0429893 139.268C1.29147 139.407 1.96952 140.008 2.77672 140.481C8.81462 144.007 14.8095 147.557 20.8581 151.076C27.1866 154.753 36.1304 154.671 42.3836 150.912C48.4753 147.248 48.4968 141.953 42.3836 138.365C29.0163 130.506 15.6382 122.659 2.26011 114.819C1.5713 114.414 0.774855 114.067 0.0322266 113.688C0.0322266 112.317 0.0322266 110.952 0.0322266 109.581H0.0429893Z" fill="#1509CE" fill-opacity="0.35"/>
<path d="M1283.95 0.619111C1286.29 0.619111 1288.61 0.619111 1290.95 0.619111C1291.22 0.947634 1291.44 1.29511 1291.78 1.59204C1300.54 9.38183 1297.77 19.187 1285.05 25.3531C1273.2 31.1022 1256.33 30.5779 1245.26 24.0959C1232.82 16.8178 1220.41 9.52082 1208 2.22382C1207.19 1.74999 1206.17 1.35197 1205.92 0.619111C1208.26 0.619111 1210.58 0.619111 1212.92 0.619111C1213.54 1.06135 1214.1 1.53518 1214.79 1.93952C1226.12 8.60475 1237.53 15.2257 1248.79 21.9352C1254.12 25.113 1260.36 26.6103 1267.9 26.2313C1278.14 25.7132 1285.46 22.5543 1289.48 17.1527C1293.38 11.9152 1292.65 6.77892 1286.07 2.23014C1285.32 1.71208 1284.65 1.15612 1283.95 0.612793V0.619111Z" fill="#1509CE" fill-opacity="0.35"/>
<path d="M827.105 0.619141C832.443 3.79697 837.782 6.98111 843.131 10.1589C850.094 14.2908 851.181 20.0904 845.854 24.8667C840.365 29.7945 830.205 31.8541 821.186 29.8703C818.882 29.3649 816.87 28.5752 815.148 27.5643C800.187 18.8016 785.249 10.0263 770.31 1.25092C769.998 1.0677 769.783 0.833944 769.524 0.619141C771.86 0.619141 774.185 0.619141 776.52 0.619141C788.209 7.51181 799.908 14.4045 811.596 21.2971C813.813 22.5986 815.998 23.919 818.258 25.1952C824.404 28.6699 833.186 28.5183 839.396 24.8414C845.617 21.1645 845.843 16.0408 839.816 12.4397C833.982 8.95225 828.041 5.52171 822.165 2.05327C821.412 1.61103 820.787 1.09929 820.098 0.619141C822.434 0.619141 824.759 0.619141 827.094 0.619141H827.105Z" fill="#1509CE" fill-opacity="0.35"/>
<path d="M1440 154.431C1439.19 154.02 1438.34 153.635 1437.59 153.193C1429.23 148.296 1420.86 143.388 1412.51 138.485C1394.29 127.783 1393.58 110.289 1410.87 99.0243C1418.75 93.8817 1428.43 90.647 1440 89.3645V92.5234C1438.62 92.4476 1437.34 92.7129 1436.06 92.9277C1427.95 94.3176 1421.19 96.9521 1415.36 100.528C1400.36 109.733 1399.13 124.731 1413.19 134.423C1421.42 140.102 1430.87 145.131 1440.01 150.324V154.431H1440Z" fill="#1509CE" fill-opacity="0.35"/>
<path d="M1440 238.122C1438.7 237.402 1437.37 236.701 1436.1 235.955C1423.55 228.601 1411.02 221.241 1398.49 213.875C1391.63 209.844 1390.67 203.912 1396.08 199.154C1401.6 194.29 1412.09 192.236 1420.84 194.328C1423.11 194.871 1425.06 195.68 1426.8 196.703C1431.18 199.262 1435.61 201.789 1440.01 204.335V208.441C1434.39 205.58 1429.23 202.44 1424.15 199.262C1415.91 194.119 1402.31 196.747 1398.68 202.819C1396.73 206.079 1397.57 209.086 1402.01 211.657C1413.98 218.607 1425.84 225.626 1437.76 232.607C1438.45 233.011 1439.26 233.34 1440.01 233.706V238.129L1440 238.122Z" fill="#1509CE" fill-opacity="0.35"/>
<path d="M1276.96 0.619141C1278.43 1.5289 1279.87 2.46392 1281.4 3.34841C1287.4 6.83581 1288.23 11.0624 1285.56 15.4406C1282.78 19.983 1276.96 22.7313 1268.65 23.3567C1262.01 23.8558 1256.46 22.6428 1251.7 19.7619C1241.78 13.7664 1231.61 7.92246 1221.55 2.00905C1220.8 1.5668 1220.1 1.08034 1219.38 0.619141C1221.71 0.619141 1224.04 0.619141 1226.37 0.619141C1236.35 6.50097 1246.21 12.4523 1256.36 18.233C1262.43 21.6952 1271.33 21.2908 1277.45 17.576C1283.35 13.9875 1283.38 8.81958 1277.57 5.27532C1275.03 3.72747 1272.18 2.3502 1269.96 0.625458C1272.3 0.625458 1274.62 0.625458 1276.96 0.625458V0.619141Z" fill="#1509CE" fill-opacity="0.35"/>
<path d="M1440 146.218C1439.18 145.814 1438.32 145.441 1437.57 145.005C1431.54 141.486 1425.53 137.954 1419.52 134.423C1405.29 126.064 1404.34 112.487 1417.32 103.453C1422.47 99.8709 1428.74 97.2806 1436.34 95.8212C1437.52 95.5938 1438.71 95.3348 1440 95.379V98.5379C1439.2 98.5884 1438.36 98.5505 1437.62 98.6958C1415.91 102.954 1405.38 118.628 1419.54 129.874C1425.33 134.473 1432.87 138.207 1440 142.118V146.224V146.218Z" fill="#1509CE" fill-opacity="0.35"/>
<path d="M1440 46.4165C1439.18 46.0122 1438.31 45.6457 1437.56 45.2035C1413.04 30.8243 1388.53 16.4451 1364.04 2.05327C1363.28 1.61103 1362.66 1.09929 1361.97 0.619141C1364.31 0.619141 1366.63 0.619141 1368.97 0.619141C1369.56 1.01084 1370.12 1.42149 1370.75 1.79424C1393.16 14.9541 1415.58 28.114 1438 41.2612C1438.63 41.634 1439.33 41.9625 1440 42.31V46.4165Z" fill="#1509CE" fill-opacity="0.35"/>
<path d="M64.6194 475C43.3845 463.438 23.5488 451.056 2.87357 439.166C1.98026 438.654 1.23763 438.041 0.0429688 437.732V433.625C1.37755 433.796 2.09865 434.44 2.95967 434.952C19.9325 444.902 36.9161 454.853 53.8566 464.822C60.2928 468.613 66.4921 472.568 74.8332 475H64.6086H64.6194Z" fill="#1509CE" fill-opacity="0.35"/>
<path d="M1440 34.0969V38.2034C1438.75 38.0581 1438.07 37.4643 1437.27 36.9904C1417.52 25.41 1397.77 13.8169 1378.03 2.22385C1377.22 1.75002 1376.21 1.352 1375.96 0.619141C1378.3 0.619141 1380.62 0.619141 1382.96 0.619141C1383.53 1.01716 1384.06 1.44045 1384.68 1.8132C1402.43 12.2438 1420.2 22.6681 1437.97 33.0861C1438.59 33.4525 1439.32 33.7621 1440 34.0969Z" fill="#1509CE" fill-opacity="0.35"/>
<path d="M299.764 475C303.154 471.936 307.868 469.706 313.109 467.855C333.268 460.741 357.355 462.497 373.94 472.246C375.447 473.13 377.148 473.92 378.321 474.994H371.325C354.32 463.647 323.237 463.647 306.211 474.994H299.753L299.764 475Z" fill="#1509CE" fill-opacity="0.35"/>
<path d="M1440 138.005C1438.85 137.879 1438.2 137.335 1437.45 136.899C1434.07 134.935 1430.86 132.869 1427.33 130.999C1412.79 123.304 1415.47 109.499 1432.39 103.182C1434.73 102.31 1437.07 101.4 1440 101.362V104.205C1435.76 105.203 1432.23 106.776 1429.17 108.76C1421.98 113.416 1420.76 121.017 1426.87 126.033C1430.52 129.027 1435.25 131.485 1440.01 133.892V137.999L1440 138.005Z" fill="#1509CE" fill-opacity="0.35"/>
<path d="M1389.43 0.619141C1391.93 0.619141 1394.45 0.619141 1396.96 0.619141C1397.52 1.02348 1398.03 1.4594 1398.65 1.82583C1411.74 9.52085 1424.85 17.2096 1437.96 24.8919C1438.58 25.2584 1439.32 25.5553 1440.01 25.8838V30.3062C1439.15 29.8451 1438.27 29.4028 1437.44 28.9227C1422.21 19.9957 1407 11.0624 1391.78 2.12908C1390.96 1.64893 1390.21 1.12456 1389.43 0.619141Z" fill="#1509CE" fill-opacity="0.35"/>
<path d="M1440 22.0995C1433.13 18.113 1426.26 14.1454 1419.42 10.14C1414.05 6.98743 1408.74 3.79697 1403.41 0.619141C1405.74 0.619141 1408.07 0.619141 1410.4 0.619141C1420.27 6.41252 1430.13 12.1996 1440 17.993V22.0995Z" fill="#1509CE" fill-opacity="0.35"/>
<path d="M313.217 475C325.981 467.741 350.273 467.45 363.5 474.394C363.823 474.564 364.06 474.798 364.34 475H355.73C350.305 472.764 344.095 472.081 337.713 472.265C332.31 472.423 326.907 472.991 322.365 475H313.217Z" fill="#1509CE" fill-opacity="0.35"/>
<path d="M1440 130.114C1437.27 128.528 1434.29 127.069 1431.84 125.338C1423.83 119.677 1428.14 110.371 1440 107.37V110.845C1432.48 113.448 1430.46 119.595 1435.9 123.531C1437.13 124.422 1438.63 125.186 1440 126.007V130.114Z" fill="#1509CE" fill-opacity="0.35"/>
</g>
<defs>
<clipPath id="clip0_630_1430">
<rect width="1440" height="475" fill="white"/>
</clipPath>
</defs>
</svg>
